<svg xmlns="http://www.w3.org/2000/svg" width="130" height="86" viewBox="0 0 130 86"><g fill="none" fill-rule="evenodd"><path d="M0 0h26v26H0z"/><path fill="#000" d="M7.8 1c6.647 1.116 11.5 6.465 11.556 12.737q.003.135-.011.27a10.5 10.5 0 0 0 3.481-1.798c.3.917.45 1.87.45 2.828.05 5.385-4.555 9.815-10.352 9.96-5.798.144-10.651-4.05-10.913-9.43C2 15.39 2 15.214 2 15.037c-.006-2.923 1.39-5.697 3.807-7.57a9.5 9.5 0 0 0 2.105 3.588 9.3 9.3 0 0 0 1.366-4.856A10 10 0 0 0 7.8 1m5.637 11.542-.071.016c-3.12 1.207-5.168 4.023-5.207 7.161-.029 1.122.43 2.207 1.272 3.012.843.804 1.998 1.26 3.207 1.265 1.195.022 2.348-.409 3.193-1.194s1.31-1.856 1.286-2.965c.122-1.562-.786-3.037-2.298-3.73a.3.3 0 0 0-.235-.003.27.27 0 0 0-.156.164 2.8 2.8 0 0 1-1.086 1.308c-.846-1.474-.71-3.268.35-4.618a.245.245 0 0 0 0-.315.29.29 0 0 0-.326-.085Z" opacity=".25"/><path fill="#FFF" d="M2.012 15.576c.266 5.376 5.118 9.565 10.912 9.42 5.596-.14 10.08-4.272 10.34-9.402q.012.221.011.443c.05 5.385-4.554 9.815-10.351 9.96-5.798.144-10.651-4.05-10.913-9.43C2 16.39 2 16.214 2 16.037l.005-.313Zm11.68-2.933a.245.245 0 0 1 0 .315q-.24.304-.415.635c-2.912 1.162-4.869 3.733-5.097 6.647a4 4 0 0 1-.021-.52c.039-3.14 2.086-5.955 5.207-7.162a.29.29 0 0 1 .326.085m-.35 4.933a2.8 2.8 0 0 0 1.086-1.308.27.27 0 0 1 .156-.164.3.3 0 0 1 .235.003c1.512.693 2.42 2.168 2.298 3.73q.004.172-.009.345c-.138-1.308-.991-2.48-2.29-3.075a.3.3 0 0 0-.234-.003.27.27 0 0 0-.156.164 2.8 2.8 0 0 1-1.086 1.308 4.1 4.1 0 0 1-.52-2.55c.066.533.238 1.06.52 1.55M7.799 2q.296.05.587.11a9.9 9.9 0 0 1 .88 4.592A10 10 0 0 0 7.799 2" opacity=".15"/><path fill="#000" d="M17.117 20.837c.024 1.11-.44 2.18-1.286 2.965-.845.785-1.998 1.216-3.193 1.194-1.209-.005-2.364-.46-3.207-1.265-.842-.805-1.3-1.89-1.272-3.012q.003-.24.021-.48a4.06 4.06 0 0 0 1.251 2.492c.843.804 1.998 1.26 3.207 1.265 1.195.022 2.348-.409 3.193-1.194a3.95 3.95 0 0 0 1.278-2.624q.033.324.008.659m-3.425-7.194a.245.245 0 0 1 0 .315 4.2 4.2 0 0 0-.87 2.068 4.1 4.1 0 0 1 .455-2.433l.089-.035a.29.29 0 0 1 .326.085M7.799 1c6.648 1.116 11.5 6.465 11.557 12.737q.003.135-.011.27a10.5 10.5 0 0 0 3.481-1.798c.3.917.45 1.87.45 2.828q.002.28-.012.557a9 9 0 0 0-.438-2.385 10.5 10.5 0 0 1-3.481 1.799q.015-.135.011-.27C19.301 8.65 14.73 3.433 8.386 2.11A10 10 0 0 0 7.799 1m1.466 5.702q.013.247.013.497a9.3 9.3 0 0 1-1.366 4.856 9.5 9.5 0 0 1-2.105-3.588c-2.29 1.774-3.663 4.357-3.796 7.109v-.009C2 15.39 2 15.214 2 15.037c-.006-2.923 1.39-5.697 3.807-7.57a9.5 9.5 0 0 0 2.105 3.588 9.34 9.34 0 0 0 1.343-4.178Z" opacity=".35"/><path d="M0 30h26v26H0z"/><path fill="#FF8000" d="M7.8 31c6.647 1.116 11.5 6.465 11.556 12.737q.003.135-.011.27a10.5 10.5 0 0 0 3.481-1.798c.3.917.45 1.87.45 2.828.05 5.385-4.555 9.815-10.352 9.96-5.798.144-10.651-4.05-10.913-9.43C2 45.39 2 45.214 2 45.037c-.006-2.923 1.39-5.697 3.807-7.57a9.5 9.5 0 0 0 2.105 3.588 9.3 9.3 0 0 0 1.366-4.856A10 10 0 0 0 7.8 31m5.637 11.542-.071.016c-3.12 1.207-5.168 4.023-5.207 7.161-.029 1.122.43 2.207 1.272 3.012.843.804 1.998 1.26 3.207 1.265 1.195.022 2.348-.409 3.193-1.194s1.31-1.856 1.286-2.965c.122-1.562-.786-3.037-2.298-3.73a.3.3 0 0 0-.235-.003.27.27 0 0 0-.156.164 2.8 2.8 0 0 1-1.086 1.308c-.846-1.474-.71-3.268.35-4.618a.245.245 0 0 0 0-.315.29.29 0 0 0-.326-.085Z"/><path fill="#000" d="M2.012 45.576c.266 5.376 5.118 9.565 10.912 9.42 5.596-.14 10.08-4.272 10.34-9.402q.012.222.011.443c.05 5.385-4.554 9.815-10.351 9.96-5.798.144-10.651-4.05-10.913-9.43C2 46.39 2 46.214 2 46.037l.005-.313Zm11.68-2.933a.245.245 0 0 1 0 .315q-.24.304-.415.635c-2.912 1.162-4.869 3.733-5.097 6.647a4 4 0 0 1-.021-.52c.039-3.14 2.086-5.955 5.207-7.162a.29.29 0 0 1 .326.085m-.35 4.933a2.8 2.8 0 0 0 1.086-1.308.27.27 0 0 1 .156-.164.3.3 0 0 1 .235.003c1.512.693 2.42 2.168 2.298 3.73q.004.172-.009.345c-.138-1.308-.991-2.48-2.29-3.075a.3.3 0 0 0-.234-.003.27.27 0 0 0-.156.164 2.8 2.8 0 0 1-1.086 1.308 4.1 4.1 0 0 1-.52-2.55c.066.533.238 1.06.52 1.55M7.799 32q.296.05.587.11a9.9 9.9 0 0 1 .88 4.592A10 10 0 0 0 7.799 32" opacity=".5"/><path fill="#FFF" d="M7.8 31c6.647 1.116 11.5 6.465 11.556 12.737q.003.135-.011.27a10.5 10.5 0 0 0 3.481-1.798c.3.917.45 1.87.45 2.828q.002.28-.012.557a9 9 0 0 0-.438-2.385 10.5 10.5 0 0 1-3.481 1.799q.015-.135.011-.27c-.055-6.088-4.626-11.304-10.97-12.628A10 10 0 0 0 7.799 31m1.465 5.702q.013.247.013.497a9.3 9.3 0 0 1-1.366 4.856 9.5 9.5 0 0 1-2.105-3.588c-2.29 1.774-3.663 4.357-3.796 7.109v-.009C2 45.39 2 45.214 2 45.037c-.006-2.923 1.39-5.697 3.807-7.57a9.5 9.5 0 0 0 2.105 3.588 9.34 9.34 0 0 0 1.343-4.178Z" opacity=".5"/><path fill="#FFE870" d="M13.692 42.643a.245.245 0 0 1 0 .315c-1.06 1.35-1.196 3.144-.35 4.618a2.8 2.8 0 0 0 1.086-1.308.27.27 0 0 1 .156-.164.3.3 0 0 1 .235.003c1.512.693 2.42 2.168 2.298 3.73.024 1.11-.44 2.18-1.286 2.965-.845.785-1.998 1.216-3.193 1.194-1.209-.005-2.364-.46-3.207-1.265-.842-.805-1.3-1.89-1.272-3.012.039-3.138 2.086-5.954 5.207-7.16a.29.29 0 0 1 .326.084"/><path d="M0 60h26v26H0z"/><path fill="#40BCF4" d="M7.8 61c6.647 1.116 11.5 6.465 11.556 12.737q.003.135-.011.27a10.5 10.5 0 0 0 3.481-1.798c.3.917.45 1.87.45 2.828.05 5.385-4.555 9.815-10.352 9.96-5.798.144-10.651-4.05-10.913-9.43C2 75.39 2 75.214 2 75.037c-.006-2.923 1.39-5.697 3.807-7.57a9.5 9.5 0 0 0 2.105 3.588 9.3 9.3 0 0 0 1.366-4.856A10 10 0 0 0 7.8 61m5.637 11.542-.071.016c-3.12 1.207-5.168 4.023-5.207 7.161-.029 1.122.43 2.207 1.272 3.012.843.804 1.998 1.26 3.207 1.265 1.195.022 2.348-.409 3.193-1.194s1.31-1.856 1.286-2.965c.122-1.562-.786-3.037-2.298-3.73a.3.3 0 0 0-.235-.003.27.27 0 0 0-.156.164 2.8 2.8 0 0 1-1.086 1.308c-.846-1.474-.71-3.268.35-4.618a.245.245 0 0 0 0-.315.29.29 0 0 0-.326-.085Z"/><path fill="#000" d="M2.012 75.576c.266 5.376 5.118 9.565 10.912 9.42 5.596-.14 10.08-4.272 10.34-9.402q.012.222.011.443c.05 5.385-4.554 9.815-10.351 9.96-5.798.144-10.651-4.05-10.913-9.43C2 76.39 2 76.214 2 76.037l.005-.313Zm11.68-2.933a.245.245 0 0 1 0 .315q-.24.304-.415.635c-2.912 1.162-4.869 3.733-5.097 6.647a4 4 0 0 1-.021-.52c.039-3.14 2.086-5.955 5.207-7.162a.29.29 0 0 1 .326.085m-.35 4.933a2.8 2.8 0 0 0 1.086-1.308.27.27 0 0 1 .156-.164.3.3 0 0 1 .235.003c1.512.693 2.42 2.168 2.298 3.73q.004.173-.009.345c-.138-1.308-.991-2.48-2.29-3.075a.3.3 0 0 0-.234-.003.27.27 0 0 0-.156.164 2.8 2.8 0 0 1-1.086 1.308 4.1 4.1 0 0 1-.52-2.55c.066.533.238 1.06.52 1.55M7.799 62q.296.05.587.11a9.9 9.9 0 0 1 .88 4.592A10 10 0 0 0 7.799 62" opacity=".5"/><path fill="#FFF" d="M7.8 61c6.647 1.116 11.5 6.465 11.556 12.737q.003.135-.011.27a10.5 10.5 0 0 0 3.481-1.798c.3.917.45 1.87.45 2.828q.002.28-.012.557a9 9 0 0 0-.438-2.385 10.5 10.5 0 0 1-3.481 1.799q.015-.135.011-.27c-.055-6.088-4.626-11.304-10.97-12.628A10 10 0 0 0 7.799 61m1.465 5.702q.013.247.013.497a9.3 9.3 0 0 1-1.366 4.856 9.5 9.5 0 0 1-2.105-3.588c-2.29 1.774-3.663 4.357-3.796 7.109v-.009C2 75.39 2 75.214 2 75.037c-.006-2.923 1.39-5.697 3.807-7.57a9.5 9.5 0 0 0 2.105 3.588 9.34 9.34 0 0 0 1.343-4.178Z" opacity=".5"/><path fill="#B8F8FF" d="M13.692 72.643a.245.245 0 0 1 0 .315c-1.06 1.35-1.196 3.144-.35 4.618a2.8 2.8 0 0 0 1.086-1.308.27.27 0 0 1 .156-.164.3.3 0 0 1 .235.003c1.512.693 2.42 2.168 2.298 3.73.024 1.11-.44 2.18-1.286 2.965-.845.785-1.998 1.216-3.193 1.194-1.209-.005-2.364-.46-3.207-1.265-.842-.805-1.3-1.89-1.272-3.012.039-3.138 2.086-5.954 5.207-7.16a.29.29 0 0 1 .326.084"/><path d="M26 60h26v26H26z"/><path fill="#40BCF4" d="M33.8 61c6.647 1.116 11.5 6.465 11.556 12.737q.003.135-.011.27a10.5 10.5 0 0 0 3.481-1.798c.3.917.45 1.87.45 2.828.05 5.385-4.555 9.815-10.352 9.96-5.798.144-10.651-4.05-10.913-9.43-.011-.177-.011-.353-.011-.53-.006-2.923 1.39-5.697 3.807-7.57a9.5 9.5 0 0 0 2.105 3.588 9.3 9.3 0 0 0 1.366-4.856A10 10 0 0 0 33.8 61m5.637 11.542-.071.016c-3.12 1.207-5.168 4.023-5.207 7.161-.029 1.122.43 2.207 1.272 3.012.843.804 1.998 1.26 3.207 1.265 1.195.022 2.348-.409 3.193-1.194s1.31-1.856 1.286-2.965c.122-1.562-.786-3.037-2.298-3.73a.3.3 0 0 0-.235-.003.27.27 0 0 0-.156.164 2.8 2.8 0 0 1-1.086 1.308c-.846-1.474-.71-3.268.35-4.618a.245.245 0 0 0 0-.315.29.29 0 0 0-.326-.085Z"/><path fill="#000" d="M28.012 75.576c.266 5.376 5.118 9.565 10.912 9.42 5.596-.14 10.08-4.272 10.34-9.402q.012.222.011.443c.05 5.385-4.554 9.815-10.351 9.96-5.798.144-10.651-4.05-10.913-9.43-.011-.177-.011-.353-.011-.53l.005-.313Zm11.68-2.933a.245.245 0 0 1 0 .315q-.24.304-.415.635c-2.912 1.162-4.869 3.733-5.097 6.647a4 4 0 0 1-.021-.52c.039-3.14 2.086-5.955 5.207-7.162a.29.29 0 0 1 .326.085m-.35 4.933a2.8 2.8 0 0 0 1.086-1.308.27.27 0 0 1 .156-.164.3.3 0 0 1 .235.003c1.512.693 2.42 2.168 2.298 3.73q.004.173-.009.345c-.138-1.308-.991-2.48-2.29-3.075a.3.3 0 0 0-.234-.003.27.27 0 0 0-.156.164 2.8 2.8 0 0 1-1.086 1.308 4.1 4.1 0 0 1-.52-2.55c.066.533.238 1.06.52 1.55M33.799 62q.296.05.587.11a9.9 9.9 0 0 1 .88 4.592A10 10 0 0 0 33.799 62" opacity=".5"/><path fill="#FFF" d="M33.8 61c6.647 1.116 11.5 6.465 11.556 12.737q.003.135-.011.27a10.5 10.5 0 0 0 3.481-1.798c.3.917.45 1.87.45 2.828q.002.28-.012.557a9 9 0 0 0-.438-2.385 10.5 10.5 0 0 1-3.481 1.799q.014-.135.011-.27c-.055-6.088-4.626-11.304-10.97-12.628a10 10 0 0 0-.587-1.11m1.465 5.702q.013.247.013.497a9.3 9.3 0 0 1-1.366 4.856 9.5 9.5 0 0 1-2.105-3.588c-2.29 1.774-3.663 4.357-3.796 7.109v-.009c-.01-.177-.01-.353-.01-.53-.006-2.923 1.39-5.697 3.807-7.57a9.5 9.5 0 0 0 2.105 3.588 9.34 9.34 0 0 0 1.343-4.178Z" opacity=".5"/><path fill="#B8F8FF" d="M39.692 72.643a.245.245 0 0 1 0 .315c-1.06 1.35-1.196 3.144-.35 4.618a2.8 2.8 0 0 0 1.086-1.308.27.27 0 0 1 .156-.164.3.3 0 0 1 .235.003c1.512.693 2.42 2.168 2.298 3.73.024 1.11-.44 2.18-1.286 2.965-.845.785-1.998 1.216-3.193 1.194-1.209-.005-2.364-.46-3.207-1.265-.842-.805-1.3-1.89-1.272-3.012.039-3.138 2.086-5.954 5.207-7.16a.29.29 0 0 1 .326.084"/><path d="M52 60h26v26H52z"/><path fill="#40BCF4" d="M59.8 61c6.647 1.116 11.5 6.465 11.556 12.737q.003.135-.011.27a10.5 10.5 0 0 0 3.481-1.798c.3.917.45 1.87.45 2.828.05 5.385-4.555 9.815-10.352 9.96-5.798.144-10.651-4.05-10.913-9.43-.011-.177-.011-.353-.011-.53-.006-2.923 1.39-5.697 3.807-7.57a9.5 9.5 0 0 0 2.105 3.588 9.3 9.3 0 0 0 1.366-4.856A10 10 0 0 0 59.8 61m5.637 11.542-.071.016c-3.12 1.207-5.168 4.023-5.207 7.161-.029 1.122.43 2.207 1.272 3.012.843.804 1.998 1.26 3.207 1.265 1.195.022 2.348-.409 3.193-1.194s1.31-1.856 1.286-2.965c.122-1.562-.786-3.037-2.298-3.73a.3.3 0 0 0-.235-.003.27.27 0 0 0-.156.164 2.8 2.8 0 0 1-1.086 1.308c-.846-1.474-.71-3.268.35-4.618a.245.245 0 0 0 0-.315.29.29 0 0 0-.326-.085Z"/><path fill="#000" d="M54.012 75.576c.266 5.376 5.118 9.565 10.912 9.42 5.596-.14 10.08-4.272 10.34-9.402q.012.222.011.443c.05 5.385-4.554 9.815-10.351 9.96-5.798.144-10.651-4.05-10.913-9.43-.011-.177-.011-.353-.011-.53l.005-.313Zm11.68-2.933a.245.245 0 0 1 0 .315q-.24.304-.415.635c-2.912 1.162-4.869 3.733-5.097 6.647a4 4 0 0 1-.021-.52c.039-3.14 2.086-5.955 5.207-7.162a.29.29 0 0 1 .326.085m-.35 4.933a2.8 2.8 0 0 0 1.086-1.308.27.27 0 0 1 .156-.164.3.3 0 0 1 .235.003c1.512.693 2.42 2.168 2.298 3.73q.004.173-.009.345c-.138-1.308-.991-2.48-2.29-3.075a.3.3 0 0 0-.234-.003.27.27 0 0 0-.156.164 2.8 2.8 0 0 1-1.086 1.308 4.1 4.1 0 0 1-.52-2.55c.066.533.238 1.06.52 1.55M59.799 62q.296.05.587.11a9.9 9.9 0 0 1 .88 4.592A10 10 0 0 0 59.799 62" opacity=".5"/><path fill="#FFF" d="M59.8 61c6.647 1.116 11.5 6.465 11.556 12.737q.003.135-.011.27a10.5 10.5 0 0 0 3.481-1.798c.3.917.45 1.87.45 2.828q.002.28-.012.557a9 9 0 0 0-.438-2.385 10.5 10.5 0 0 1-3.481 1.799q.014-.135.011-.27c-.055-6.088-4.626-11.304-10.97-12.628a10 10 0 0 0-.587-1.11m1.465 5.702q.013.247.013.497a9.3 9.3 0 0 1-1.366 4.856 9.5 9.5 0 0 1-2.105-3.588c-2.29 1.774-3.663 4.357-3.796 7.109v-.009c-.01-.177-.01-.353-.01-.53-.006-2.923 1.39-5.697 3.807-7.57a9.5 9.5 0 0 0 2.105 3.588 9.34 9.34 0 0 0 1.343-4.178Z" opacity=".5"/><path fill="#B8F8FF" d="M65.692 72.643a.245.245 0 0 1 0 .315c-1.06 1.35-1.196 3.144-.35 4.618a2.8 2.8 0 0 0 1.086-1.308.27.27 0 0 1 .156-.164.3.3 0 0 1 .235.003c1.512.693 2.42 2.168 2.298 3.73.024 1.11-.44 2.18-1.286 2.965-.845.785-1.998 1.216-3.193 1.194-1.209-.005-2.364-.46-3.207-1.265-.842-.805-1.3-1.89-1.272-3.012.039-3.138 2.086-5.954 5.207-7.16a.29.29 0 0 1 .326.084"/><path d="M78 60h26v26H78z"/><path fill="#40BCF4" d="M85.8 61c6.647 1.116 11.5 6.465 11.556 12.737q.003.135-.011.27a10.5 10.5 0 0 0 3.481-1.798c.3.917.45 1.87.45 2.828.05 5.385-4.555 9.815-10.352 9.96-5.798.144-10.651-4.05-10.913-9.43-.011-.177-.011-.353-.011-.53-.006-2.923 1.39-5.697 3.807-7.57a9.5 9.5 0 0 0 2.105 3.588 9.3 9.3 0 0 0 1.366-4.856A10 10 0 0 0 85.8 61m5.637 11.542-.071.016c-3.12 1.207-5.168 4.023-5.207 7.161-.029 1.122.43 2.207 1.272 3.012.843.804 1.998 1.26 3.207 1.265 1.195.022 2.348-.409 3.193-1.194s1.31-1.856 1.286-2.965c.122-1.562-.786-3.037-2.298-3.73a.3.3 0 0 0-.235-.003.27.27 0 0 0-.156.164 2.8 2.8 0 0 1-1.086 1.308c-.846-1.474-.71-3.268.35-4.618a.245.245 0 0 0 0-.315.29.29 0 0 0-.326-.085Z"/><path fill="#000" d="M80.012 75.576c.266 5.376 5.118 9.565 10.912 9.42 5.596-.14 10.08-4.272 10.34-9.402q.012.222.011.443c.05 5.385-4.554 9.815-10.351 9.96-5.798.144-10.651-4.05-10.913-9.43-.011-.177-.011-.353-.011-.53l.005-.313Zm11.68-2.933a.245.245 0 0 1 0 .315q-.24.304-.415.635c-2.912 1.162-4.869 3.733-5.097 6.647a4 4 0 0 1-.021-.52c.039-3.14 2.086-5.955 5.207-7.162a.29.29 0 0 1 .326.085m-.35 4.933a2.8 2.8 0 0 0 1.086-1.308.27.27 0 0 1 .156-.164.3.3 0 0 1 .235.003c1.512.693 2.42 2.168 2.298 3.73q.004.173-.009.345c-.138-1.308-.991-2.48-2.29-3.075a.3.3 0 0 0-.234-.003.27.27 0 0 0-.156.164 2.8 2.8 0 0 1-1.086 1.308 4.1 4.1 0 0 1-.52-2.55c.066.533.238 1.06.52 1.55M85.799 62q.296.05.587.11a9.9 9.9 0 0 1 .88 4.592A10 10 0 0 0 85.799 62" opacity=".5"/><path fill="#FFF" d="M85.8 61c6.647 1.116 11.5 6.465 11.556 12.737q.003.135-.011.27a10.5 10.5 0 0 0 3.481-1.798c.3.917.45 1.87.45 2.828q.002.28-.012.557a9 9 0 0 0-.438-2.385 10.5 10.5 0 0 1-3.481 1.799q.015-.135.011-.27c-.055-6.088-4.626-11.304-10.97-12.628a10 10 0 0 0-.587-1.11m1.465 5.702q.013.247.013.497a9.3 9.3 0 0 1-1.366 4.856 9.5 9.5 0 0 1-2.105-3.588c-2.29 1.774-3.663 4.357-3.796 7.109v-.009c-.01-.177-.01-.353-.01-.53-.006-2.923 1.39-5.697 3.807-7.57a9.5 9.5 0 0 0 2.105 3.588 9.34 9.34 0 0 0 1.343-4.178Z" opacity=".5"/><path fill="#B8F8FF" d="M91.692 72.643a.245.245 0 0 1 0 .315c-1.06 1.35-1.196 3.144-.35 4.618a2.8 2.8 0 0 0 1.086-1.308.27.27 0 0 1 .156-.164.3.3 0 0 1 .235.003c1.512.693 2.42 2.168 2.298 3.73.024 1.11-.44 2.18-1.286 2.965-.845.785-1.998 1.216-3.193 1.194-1.209-.005-2.364-.46-3.207-1.265-.842-.805-1.3-1.89-1.272-3.012.039-3.138 2.086-5.954 5.207-7.16a.29.29 0 0 1 .326.084"/><path d="M104 60h26v26h-26z"/><path fill="#40BCF4" d="M111.8 61c6.647 1.116 11.5 6.465 11.556 12.737q.003.135-.011.27a10.5 10.5 0 0 0 3.481-1.798c.3.917.45 1.87.45 2.828.05 5.385-4.555 9.815-10.352 9.96-5.798.144-10.651-4.05-10.913-9.43-.011-.177-.011-.353-.011-.53-.006-2.923 1.39-5.697 3.807-7.57a9.5 9.5 0 0 0 2.105 3.588 9.3 9.3 0 0 0 1.366-4.856A10 10 0 0 0 111.8 61m5.637 11.542-.071.016c-3.12 1.207-5.168 4.023-5.207 7.161-.029 1.122.43 2.207 1.272 3.012.843.804 1.998 1.26 3.207 1.265 1.195.022 2.348-.409 3.193-1.194s1.31-1.856 1.286-2.965c.122-1.562-.786-3.037-2.298-3.73a.3.3 0 0 0-.235-.003.27.27 0 0 0-.156.164 2.8 2.8 0 0 1-1.086 1.308c-.846-1.474-.71-3.268.35-4.618a.245.245 0 0 0 0-.315.29.29 0 0 0-.326-.085Z"/><path fill="#000" d="M106.012 75.576c.266 5.376 5.118 9.565 10.912 9.42 5.596-.14 10.08-4.272 10.34-9.402q.012.222.011.443c.05 5.385-4.554 9.815-10.351 9.96-5.798.144-10.651-4.05-10.913-9.43-.011-.177-.011-.353-.011-.53l.005-.313Zm11.68-2.933a.245.245 0 0 1 0 .315q-.24.304-.415.635c-2.912 1.162-4.869 3.733-5.097 6.647a4 4 0 0 1-.021-.52c.039-3.14 2.086-5.955 5.207-7.162a.29.29 0 0 1 .326.085m-.35 4.933a2.8 2.8 0 0 0 1.086-1.308.27.27 0 0 1 .156-.164.3.3 0 0 1 .235.003c1.512.693 2.42 2.168 2.298 3.73q.004.173-.009.345c-.138-1.308-.991-2.48-2.29-3.075a.3.3 0 0 0-.234-.003.27.27 0 0 0-.156.164 2.8 2.8 0 0 1-1.086 1.308 4.1 4.1 0 0 1-.52-2.55c.066.533.238 1.06.52 1.55M111.799 62q.296.05.587.11a9.9 9.9 0 0 1 .88 4.592A10 10 0 0 0 111.799 62" opacity=".5"/><path fill="#FFF" d="M111.8 61c6.647 1.116 11.5 6.465 11.556 12.737q.003.135-.011.27a10.5 10.5 0 0 0 3.481-1.798c.3.917.45 1.87.45 2.828q.002.28-.012.557a9 9 0 0 0-.438-2.385 10.5 10.5 0 0 1-3.481 1.799q.015-.135.011-.27c-.055-6.088-4.626-11.304-10.97-12.628a10 10 0 0 0-.587-1.11m1.465 5.702q.013.247.013.497a9.3 9.3 0 0 1-1.366 4.856 9.5 9.5 0 0 1-2.105-3.588c-2.29 1.774-3.663 4.357-3.796 7.109v-.009c-.011-.177-.011-.353-.011-.53-.006-2.923 1.39-5.697 3.807-7.57a9.5 9.5 0 0 0 2.105 3.588 9.34 9.34 0 0 0 1.343-4.178Z" opacity=".5"/><path fill="#B8F8FF" d="M117.692 72.643a.245.245 0 0 1 0 .315c-1.06 1.35-1.196 3.144-.35 4.618a2.8 2.8 0 0 0 1.086-1.308.27.27 0 0 1 .156-.164.3.3 0 0 1 .235.003c1.512.693 2.42 2.168 2.298 3.73.024 1.11-.44 2.18-1.286 2.965-.845.785-1.998 1.216-3.193 1.194-1.209-.005-2.364-.46-3.207-1.265-.842-.805-1.3-1.89-1.272-3.012.039-3.138 2.086-5.954 5.207-7.16a.29.29 0 0 1 .326.084"/><path d="M26 30h26v26H26z"/><path fill="#FF8000" d="M33.8 31c6.647 1.116 11.5 6.465 11.556 12.737q.003.135-.011.27a10.5 10.5 0 0 0 3.481-1.798c.3.917.45 1.87.45 2.828.05 5.385-4.555 9.815-10.352 9.96-5.798.144-10.651-4.05-10.913-9.43-.011-.177-.011-.353-.011-.53-.006-2.923 1.39-5.697 3.807-7.57a9.5 9.5 0 0 0 2.105 3.588 9.3 9.3 0 0 0 1.366-4.856A10 10 0 0 0 33.8 31m5.637 11.542-.071.016c-3.12 1.207-5.168 4.023-5.207 7.161-.029 1.122.43 2.207 1.272 3.012.843.804 1.998 1.26 3.207 1.265 1.195.022 2.348-.409 3.193-1.194s1.31-1.856 1.286-2.965c.122-1.562-.786-3.037-2.298-3.73a.3.3 0 0 0-.235-.003.27.27 0 0 0-.156.164 2.8 2.8 0 0 1-1.086 1.308c-.846-1.474-.71-3.268.35-4.618a.245.245 0 0 0 0-.315.29.29 0 0 0-.326-.085Z"/><path fill="#000" d="M28.012 45.576c.266 5.376 5.118 9.565 10.912 9.42 5.596-.14 10.08-4.272 10.34-9.402q.012.222.011.443c.05 5.385-4.554 9.815-10.351 9.96-5.798.144-10.651-4.05-10.913-9.43-.011-.177-.011-.353-.011-.53l.005-.313Zm11.68-2.933a.245.245 0 0 1 0 .315q-.24.304-.415.635c-2.912 1.162-4.869 3.733-5.097 6.647a4 4 0 0 1-.021-.52c.039-3.14 2.086-5.955 5.207-7.162a.29.29 0 0 1 .326.085m-.35 4.933a2.8 2.8 0 0 0 1.086-1.308.27.27 0 0 1 .156-.164.3.3 0 0 1 .235.003c1.512.693 2.42 2.168 2.298 3.73q.004.172-.009.345c-.138-1.308-.991-2.48-2.29-3.075a.3.3 0 0 0-.234-.003.27.27 0 0 0-.156.164 2.8 2.8 0 0 1-1.086 1.308 4.1 4.1 0 0 1-.52-2.55c.066.533.238 1.06.52 1.55M33.799 32q.296.05.587.11a9.9 9.9 0 0 1 .88 4.592A10 10 0 0 0 33.799 32" opacity=".5"/><path fill="#FFF" d="M33.8 31c6.647 1.116 11.5 6.465 11.556 12.737q.003.135-.011.27a10.5 10.5 0 0 0 3.481-1.798c.3.917.45 1.87.45 2.828q.002.28-.012.557a9 9 0 0 0-.438-2.385 10.5 10.5 0 0 1-3.481 1.799q.014-.135.011-.27c-.055-6.088-4.626-11.304-10.97-12.628a10 10 0 0 0-.587-1.11m1.465 5.702q.013.247.013.497a9.3 9.3 0 0 1-1.366 4.856 9.5 9.5 0 0 1-2.105-3.588c-2.29 1.774-3.663 4.357-3.796 7.109v-.009c-.01-.177-.01-.353-.01-.53-.006-2.923 1.39-5.697 3.807-7.57a9.5 9.5 0 0 0 2.105 3.588 9.34 9.34 0 0 0 1.343-4.178Z" opacity=".5"/><path fill="#FFE870" d="M39.692 42.643a.245.245 0 0 1 0 .315c-1.06 1.35-1.196 3.144-.35 4.618a2.8 2.8 0 0 0 1.086-1.308.27.27 0 0 1 .156-.164.3.3 0 0 1 .235.003c1.512.693 2.42 2.168 2.298 3.73.024 1.11-.44 2.18-1.286 2.965-.845.785-1.998 1.216-3.193 1.194-1.209-.005-2.364-.46-3.207-1.265-.842-.805-1.3-1.89-1.272-3.012.039-3.138 2.086-5.954 5.207-7.16a.29.29 0 0 1 .326.084"/><path d="M52 30h26v26H52z"/><path fill="#FF8000" d="M59.8 31c6.647 1.116 11.5 6.465 11.556 12.737q.003.135-.011.27a10.5 10.5 0 0 0 3.481-1.798c.3.917.45 1.87.45 2.828.05 5.385-4.555 9.815-10.352 9.96-5.798.144-10.651-4.05-10.913-9.43-.011-.177-.011-.353-.011-.53-.006-2.923 1.39-5.697 3.807-7.57a9.5 9.5 0 0 0 2.105 3.588 9.3 9.3 0 0 0 1.366-4.856A10 10 0 0 0 59.8 31m5.637 11.542-.071.016c-3.12 1.207-5.168 4.023-5.207 7.161-.029 1.122.43 2.207 1.272 3.012.843.804 1.998 1.26 3.207 1.265 1.195.022 2.348-.409 3.193-1.194s1.31-1.856 1.286-2.965c.122-1.562-.786-3.037-2.298-3.73a.3.3 0 0 0-.235-.003.27.27 0 0 0-.156.164 2.8 2.8 0 0 1-1.086 1.308c-.846-1.474-.71-3.268.35-4.618a.245.245 0 0 0 0-.315.29.29 0 0 0-.326-.085Z"/><path fill="#000" d="M54.012 45.576c.266 5.376 5.118 9.565 10.912 9.42 5.596-.14 10.08-4.272 10.34-9.402q.012.222.011.443c.05 5.385-4.554 9.815-10.351 9.96-5.798.144-10.651-4.05-10.913-9.43-.011-.177-.011-.353-.011-.53l.005-.313Zm11.68-2.933a.245.245 0 0 1 0 .315q-.24.304-.415.635c-2.912 1.162-4.869 3.733-5.097 6.647a4 4 0 0 1-.021-.52c.039-3.14 2.086-5.955 5.207-7.162a.29.29 0 0 1 .326.085m-.35 4.933a2.8 2.8 0 0 0 1.086-1.308.27.27 0 0 1 .156-.164.3.3 0 0 1 .235.003c1.512.693 2.42 2.168 2.298 3.73q.004.172-.009.345c-.138-1.308-.991-2.48-2.29-3.075a.3.3 0 0 0-.234-.003.27.27 0 0 0-.156.164 2.8 2.8 0 0 1-1.086 1.308 4.1 4.1 0 0 1-.52-2.55c.066.533.238 1.06.52 1.55M59.799 32q.296.05.587.11a9.9 9.9 0 0 1 .88 4.592A10 10 0 0 0 59.799 32" opacity=".5"/><path fill="#FFF" d="M59.8 31c6.647 1.116 11.5 6.465 11.556 12.737q.003.135-.011.27a10.5 10.5 0 0 0 3.481-1.798c.3.917.45 1.87.45 2.828q.002.28-.012.557a9 9 0 0 0-.438-2.385 10.5 10.5 0 0 1-3.481 1.799q.014-.135.011-.27c-.055-6.088-4.626-11.304-10.97-12.628a10 10 0 0 0-.587-1.11m1.465 5.702q.013.247.013.497a9.3 9.3 0 0 1-1.366 4.856 9.5 9.5 0 0 1-2.105-3.588c-2.29 1.774-3.663 4.357-3.796 7.109v-.009c-.01-.177-.01-.353-.01-.53-.006-2.923 1.39-5.697 3.807-7.57a9.5 9.5 0 0 0 2.105 3.588 9.34 9.34 0 0 0 1.343-4.178Z" opacity=".5"/><path fill="#FFE870" d="M65.692 42.643a.245.245 0 0 1 0 .315c-1.06 1.35-1.196 3.144-.35 4.618a2.8 2.8 0 0 0 1.086-1.308.27.27 0 0 1 .156-.164.3.3 0 0 1 .235.003c1.512.693 2.42 2.168 2.298 3.73.024 1.11-.44 2.18-1.286 2.965-.845.785-1.998 1.216-3.193 1.194-1.209-.005-2.364-.46-3.207-1.265-.842-.805-1.3-1.89-1.272-3.012.039-3.138 2.086-5.954 5.207-7.16a.29.29 0 0 1 .326.084"/><path d="M78 30h26v26H78z"/><path fill="#FF8000" d="M85.8 31c6.647 1.116 11.5 6.465 11.556 12.737q.003.135-.011.27a10.5 10.5 0 0 0 3.481-1.798c.3.917.45 1.87.45 2.828.05 5.385-4.555 9.815-10.352 9.96-5.798.144-10.651-4.05-10.913-9.43-.011-.177-.011-.353-.011-.53-.006-2.923 1.39-5.697 3.807-7.57a9.5 9.5 0 0 0 2.105 3.588 9.3 9.3 0 0 0 1.366-4.856A10 10 0 0 0 85.8 31m5.637 11.542-.071.016c-3.12 1.207-5.168 4.023-5.207 7.161-.029 1.122.43 2.207 1.272 3.012.843.804 1.998 1.26 3.207 1.265 1.195.022 2.348-.409 3.193-1.194s1.31-1.856 1.286-2.965c.122-1.562-.786-3.037-2.298-3.73a.3.3 0 0 0-.235-.003.27.27 0 0 0-.156.164 2.8 2.8 0 0 1-1.086 1.308c-.846-1.474-.71-3.268.35-4.618a.245.245 0 0 0 0-.315.29.29 0 0 0-.326-.085Z"/><path fill="#000" d="M80.012 45.576c.266 5.376 5.118 9.565 10.912 9.42 5.596-.14 10.08-4.272 10.34-9.402q.012.222.011.443c.05 5.385-4.554 9.815-10.351 9.96-5.798.144-10.651-4.05-10.913-9.43-.011-.177-.011-.353-.011-.53l.005-.313Zm11.68-2.933a.245.245 0 0 1 0 .315q-.24.304-.415.635c-2.912 1.162-4.869 3.733-5.097 6.647a4 4 0 0 1-.021-.52c.039-3.14 2.086-5.955 5.207-7.162a.29.29 0 0 1 .326.085m-.35 4.933a2.8 2.8 0 0 0 1.086-1.308.27.27 0 0 1 .156-.164.3.3 0 0 1 .235.003c1.512.693 2.42 2.168 2.298 3.73q.004.172-.009.345c-.138-1.308-.991-2.48-2.29-3.075a.3.3 0 0 0-.234-.003.27.27 0 0 0-.156.164 2.8 2.8 0 0 1-1.086 1.308 4.1 4.1 0 0 1-.52-2.55c.066.533.238 1.06.52 1.55M85.799 32q.296.05.587.11a9.9 9.9 0 0 1 .88 4.592A10 10 0 0 0 85.799 32" opacity=".5"/><path fill="#FFF" d="M85.8 31c6.647 1.116 11.5 6.465 11.556 12.737q.003.135-.011.27a10.5 10.5 0 0 0 3.481-1.798c.3.917.45 1.87.45 2.828q.002.28-.012.557a9 9 0 0 0-.438-2.385 10.5 10.5 0 0 1-3.481 1.799q.015-.135.011-.27c-.055-6.088-4.626-11.304-10.97-12.628a10 10 0 0 0-.587-1.11m1.465 5.702q.013.247.013.497a9.3 9.3 0 0 1-1.366 4.856 9.5 9.5 0 0 1-2.105-3.588c-2.29 1.774-3.663 4.357-3.796 7.109v-.009c-.01-.177-.01-.353-.01-.53-.006-2.923 1.39-5.697 3.807-7.57a9.5 9.5 0 0 0 2.105 3.588 9.34 9.34 0 0 0 1.343-4.178Z" opacity=".5"/><path fill="#FFE870" d="M91.692 42.643a.245.245 0 0 1 0 .315c-1.06 1.35-1.196 3.144-.35 4.618a2.8 2.8 0 0 0 1.086-1.308.27.27 0 0 1 .156-.164.3.3 0 0 1 .235.003c1.512.693 2.42 2.168 2.298 3.73.024 1.11-.44 2.18-1.286 2.965-.845.785-1.998 1.216-3.193 1.194-1.209-.005-2.364-.46-3.207-1.265-.842-.805-1.3-1.89-1.272-3.012.039-3.138 2.086-5.954 5.207-7.16a.29.29 0 0 1 .326.084"/><path d="M104 30h26v26h-26z"/><path fill="#FF8000" d="M111.8 31c6.647 1.116 11.5 6.465 11.556 12.737q.003.135-.011.27a10.5 10.5 0 0 0 3.481-1.798c.3.917.45 1.87.45 2.828.05 5.385-4.555 9.815-10.352 9.96-5.798.144-10.651-4.05-10.913-9.43-.011-.177-.011-.353-.011-.53-.006-2.923 1.39-5.697 3.807-7.57a9.5 9.5 0 0 0 2.105 3.588 9.3 9.3 0 0 0 1.366-4.856A10 10 0 0 0 111.8 31m5.637 11.542-.071.016c-3.12 1.207-5.168 4.023-5.207 7.161-.029 1.122.43 2.207 1.272 3.012.843.804 1.998 1.26 3.207 1.265 1.195.022 2.348-.409 3.193-1.194s1.31-1.856 1.286-2.965c.122-1.562-.786-3.037-2.298-3.73a.3.3 0 0 0-.235-.003.27.27 0 0 0-.156.164 2.8 2.8 0 0 1-1.086 1.308c-.846-1.474-.71-3.268.35-4.618a.245.245 0 0 0 0-.315.29.29 0 0 0-.326-.085Z"/><path fill="#000" d="M106.012 45.576c.266 5.376 5.118 9.565 10.912 9.42 5.596-.14 10.08-4.272 10.34-9.402q.012.222.011.443c.05 5.385-4.554 9.815-10.351 9.96-5.798.144-10.651-4.05-10.913-9.43-.011-.177-.011-.353-.011-.53l.005-.313Zm11.68-2.933a.245.245 0 0 1 0 .315q-.24.304-.415.635c-2.912 1.162-4.869 3.733-5.097 6.647a4 4 0 0 1-.021-.52c.039-3.14 2.086-5.955 5.207-7.162a.29.29 0 0 1 .326.085m-.35 4.933a2.8 2.8 0 0 0 1.086-1.308.27.27 0 0 1 .156-.164.3.3 0 0 1 .235.003c1.512.693 2.42 2.168 2.298 3.73q.004.172-.009.345c-.138-1.308-.991-2.48-2.29-3.075a.3.3 0 0 0-.234-.003.27.27 0 0 0-.156.164 2.8 2.8 0 0 1-1.086 1.308 4.1 4.1 0 0 1-.52-2.55c.066.533.238 1.06.52 1.55M111.799 32q.296.05.587.11a9.9 9.9 0 0 1 .88 4.592A10 10 0 0 0 111.799 32" opacity=".5"/><path fill="#FFF" d="M111.8 31c6.647 1.116 11.5 6.465 11.556 12.737q.003.135-.011.27a10.5 10.5 0 0 0 3.481-1.798c.3.917.45 1.87.45 2.828q.002.28-.012.557a9 9 0 0 0-.438-2.385 10.5 10.5 0 0 1-3.481 1.799q.015-.135.011-.27c-.055-6.088-4.626-11.304-10.97-12.628a10 10 0 0 0-.587-1.11m1.465 5.702q.013.247.013.497a9.3 9.3 0 0 1-1.366 4.856 9.5 9.5 0 0 1-2.105-3.588c-2.29 1.774-3.663 4.357-3.796 7.109v-.009c-.011-.177-.011-.353-.011-.53-.006-2.923 1.39-5.697 3.807-7.57a9.5 9.5 0 0 0 2.105 3.588 9.34 9.34 0 0 0 1.343-4.178Z" opacity=".5"/><path fill="#FFE870" d="M117.692 42.643a.245.245 0 0 1 0 .315c-1.06 1.35-1.196 3.144-.35 4.618a2.8 2.8 0 0 0 1.086-1.308.27.27 0 0 1 .156-.164.3.3 0 0 1 .235.003c1.512.693 2.42 2.168 2.298 3.73.024 1.11-.44 2.18-1.286 2.965-.845.785-1.998 1.216-3.193 1.194-1.209-.005-2.364-.46-3.207-1.265-.842-.805-1.3-1.89-1.272-3.012.039-3.138 2.086-5.954 5.207-7.16a.29.29 0 0 1 .326.084"/><path d="M26 0h26v26H26z"/><path fill="#000" d="M33.8 1c6.647 1.116 11.5 6.465 11.556 12.737q.003.135-.011.27a10.5 10.5 0 0 0 3.481-1.798c.3.917.45 1.87.45 2.828.05 5.385-4.555 9.815-10.352 9.96-5.798.144-10.651-4.05-10.913-9.43-.011-.177-.011-.353-.011-.53-.006-2.923 1.39-5.697 3.807-7.57a9.5 9.5 0 0 0 2.105 3.588 9.3 9.3 0 0 0 1.366-4.856A10 10 0 0 0 33.8 1m5.637 11.542-.071.016c-3.12 1.207-5.168 4.023-5.207 7.161-.029 1.122.43 2.207 1.272 3.012.843.804 1.998 1.26 3.207 1.265 1.195.022 2.348-.409 3.193-1.194s1.31-1.856 1.286-2.965c.122-1.562-.786-3.037-2.298-3.73a.3.3 0 0 0-.235-.003.27.27 0 0 0-.156.164 2.8 2.8 0 0 1-1.086 1.308c-.846-1.474-.71-3.268.35-4.618a.245.245 0 0 0 0-.315.29.29 0 0 0-.326-.085Z" opacity=".25"/><path fill="#FFF" d="M28.012 15.576c.266 5.376 5.118 9.565 10.912 9.42 5.596-.14 10.08-4.272 10.34-9.402q.012.221.011.443c.05 5.385-4.554 9.815-10.351 9.96-5.798.144-10.651-4.05-10.913-9.43-.011-.177-.011-.353-.011-.53l.005-.313Zm11.68-2.933a.245.245 0 0 1 0 .315q-.24.304-.415.635c-2.912 1.162-4.869 3.733-5.097 6.647a4 4 0 0 1-.021-.52c.039-3.14 2.086-5.955 5.207-7.162a.29.29 0 0 1 .326.085m-.35 4.933a2.8 2.8 0 0 0 1.086-1.308.27.27 0 0 1 .156-.164.3.3 0 0 1 .235.003c1.512.693 2.42 2.168 2.298 3.73q.004.172-.009.345c-.138-1.308-.991-2.48-2.29-3.075a.3.3 0 0 0-.234-.003.27.27 0 0 0-.156.164 2.8 2.8 0 0 1-1.086 1.308 4.1 4.1 0 0 1-.52-2.55c.066.533.238 1.06.52 1.55M33.799 2q.296.05.587.11a9.9 9.9 0 0 1 .88 4.592A10 10 0 0 0 33.799 2" opacity=".15"/><path fill="#000" d="M43.117 20.837c.024 1.11-.44 2.18-1.286 2.965-.845.785-1.998 1.216-3.193 1.194-1.209-.005-2.364-.46-3.207-1.265-.842-.805-1.3-1.89-1.272-3.012q.003-.24.021-.48a4.06 4.06 0 0 0 1.251 2.492c.843.804 1.998 1.26 3.207 1.265 1.195.022 2.348-.409 3.193-1.194a3.95 3.95 0 0 0 1.278-2.624q.033.324.008.659m-3.425-7.194a.245.245 0 0 1 0 .315 4.2 4.2 0 0 0-.87 2.068 4.1 4.1 0 0 1 .455-2.433l.089-.035a.29.29 0 0 1 .326.085M33.799 1c6.648 1.116 11.5 6.465 11.557 12.737q.003.135-.011.27a10.5 10.5 0 0 0 3.481-1.798c.3.917.45 1.87.45 2.828q.002.28-.012.557a9 9 0 0 0-.438-2.385 10.5 10.5 0 0 1-3.481 1.799q.014-.135.011-.27C45.301 8.65 40.73 3.433 34.386 2.11A10 10 0 0 0 33.799 1m1.466 5.702q.013.247.013.497a9.3 9.3 0 0 1-1.366 4.856 9.5 9.5 0 0 1-2.105-3.588c-2.29 1.774-3.663 4.357-3.796 7.109v-.009C28 15.39 28 15.214 28 15.037c-.006-2.923 1.39-5.697 3.807-7.57a9.5 9.5 0 0 0 2.105 3.588 9.34 9.34 0 0 0 1.343-4.178Z" opacity=".35"/><path d="M52 0h26v26H52z"/><path fill="#000" d="M59.8 1c6.647 1.116 11.5 6.465 11.556 12.737q.003.135-.011.27a10.5 10.5 0 0 0 3.481-1.798c.3.917.45 1.87.45 2.828.05 5.385-4.555 9.815-10.352 9.96-5.798.144-10.651-4.05-10.913-9.43-.011-.177-.011-.353-.011-.53-.006-2.923 1.39-5.697 3.807-7.57a9.5 9.5 0 0 0 2.105 3.588 9.3 9.3 0 0 0 1.366-4.856A10 10 0 0 0 59.8 1m5.637 11.542-.071.016c-3.12 1.207-5.168 4.023-5.207 7.161-.029 1.122.43 2.207 1.272 3.012.843.804 1.998 1.26 3.207 1.265 1.195.022 2.348-.409 3.193-1.194s1.31-1.856 1.286-2.965c.122-1.562-.786-3.037-2.298-3.73a.3.3 0 0 0-.235-.003.27.27 0 0 0-.156.164 2.8 2.8 0 0 1-1.086 1.308c-.846-1.474-.71-3.268.35-4.618a.245.245 0 0 0 0-.315.29.29 0 0 0-.326-.085Z" opacity=".25"/><path fill="#FFF" d="M54.012 15.576c.266 5.376 5.118 9.565 10.912 9.42 5.596-.14 10.08-4.272 10.34-9.402q.012.221.011.443c.05 5.385-4.554 9.815-10.351 9.96-5.798.144-10.651-4.05-10.913-9.43-.011-.177-.011-.353-.011-.53l.005-.313Zm11.68-2.933a.245.245 0 0 1 0 .315q-.24.304-.415.635c-2.912 1.162-4.869 3.733-5.097 6.647a4 4 0 0 1-.021-.52c.039-3.14 2.086-5.955 5.207-7.162a.29.29 0 0 1 .326.085m-.35 4.933a2.8 2.8 0 0 0 1.086-1.308.27.27 0 0 1 .156-.164.3.3 0 0 1 .235.003c1.512.693 2.42 2.168 2.298 3.73q.004.172-.009.345c-.138-1.308-.991-2.48-2.29-3.075a.3.3 0 0 0-.234-.003.27.27 0 0 0-.156.164 2.8 2.8 0 0 1-1.086 1.308 4.1 4.1 0 0 1-.52-2.55c.066.533.238 1.06.52 1.55M59.799 2q.296.05.587.11a9.9 9.9 0 0 1 .88 4.592A10 10 0 0 0 59.799 2" opacity=".15"/><path fill="#000" d="M69.117 20.837c.024 1.11-.44 2.18-1.286 2.965-.845.785-1.998 1.216-3.193 1.194-1.209-.005-2.364-.46-3.207-1.265-.842-.805-1.3-1.89-1.272-3.012q.003-.24.021-.48a4.06 4.06 0 0 0 1.251 2.492c.843.804 1.998 1.26 3.207 1.265 1.195.022 2.348-.409 3.193-1.194a3.95 3.95 0 0 0 1.278-2.624q.033.324.008.659m-3.425-7.194a.245.245 0 0 1 0 .315 4.2 4.2 0 0 0-.87 2.068 4.1 4.1 0 0 1 .455-2.433l.089-.035a.29.29 0 0 1 .326.085M59.799 1c6.648 1.116 11.5 6.465 11.557 12.737q.003.135-.011.27a10.5 10.5 0 0 0 3.481-1.798c.3.917.45 1.87.45 2.828q.002.28-.012.557a9 9 0 0 0-.438-2.385 10.5 10.5 0 0 1-3.481 1.799q.014-.135.011-.27C71.301 8.65 66.73 3.433 60.386 2.11A10 10 0 0 0 59.799 1m1.466 5.702q.013.247.013.497a9.3 9.3 0 0 1-1.366 4.856 9.5 9.5 0 0 1-2.105-3.588c-2.29 1.774-3.663 4.357-3.796 7.109v-.009C54 15.39 54 15.214 54 15.037c-.006-2.923 1.39-5.697 3.807-7.57a9.5 9.5 0 0 0 2.105 3.588 9.34 9.34 0 0 0 1.343-4.178Z" opacity=".35"/><path d="M78 0h26v26H78z"/><path fill="#000" d="M85.8 1c6.647 1.116 11.5 6.465 11.556 12.737q.003.135-.011.27a10.5 10.5 0 0 0 3.481-1.798c.3.917.45 1.87.45 2.828.05 5.385-4.555 9.815-10.352 9.96-5.798.144-10.651-4.05-10.913-9.43-.011-.177-.011-.353-.011-.53-.006-2.923 1.39-5.697 3.807-7.57a9.5 9.5 0 0 0 2.105 3.588 9.3 9.3 0 0 0 1.366-4.856A10 10 0 0 0 85.8 1m5.637 11.542-.071.016c-3.12 1.207-5.168 4.023-5.207 7.161-.029 1.122.43 2.207 1.272 3.012.843.804 1.998 1.26 3.207 1.265 1.195.022 2.348-.409 3.193-1.194s1.31-1.856 1.286-2.965c.122-1.562-.786-3.037-2.298-3.73a.3.3 0 0 0-.235-.003.27.27 0 0 0-.156.164 2.8 2.8 0 0 1-1.086 1.308c-.846-1.474-.71-3.268.35-4.618a.245.245 0 0 0 0-.315.29.29 0 0 0-.326-.085Z" opacity=".25"/><path fill="#FFF" d="M80.012 15.576c.266 5.376 5.118 9.565 10.912 9.42 5.596-.14 10.08-4.272 10.34-9.402q.012.221.011.443c.05 5.385-4.554 9.815-10.351 9.96-5.798.144-10.651-4.05-10.913-9.43-.011-.177-.011-.353-.011-.53l.005-.313Zm11.68-2.933a.245.245 0 0 1 0 .315q-.24.304-.415.635c-2.912 1.162-4.869 3.733-5.097 6.647a4 4 0 0 1-.021-.52c.039-3.14 2.086-5.955 5.207-7.162a.29.29 0 0 1 .326.085m-.35 4.933a2.8 2.8 0 0 0 1.086-1.308.27.27 0 0 1 .156-.164.3.3 0 0 1 .235.003c1.512.693 2.42 2.168 2.298 3.73q.004.172-.009.345c-.138-1.308-.991-2.48-2.29-3.075a.3.3 0 0 0-.234-.003.27.27 0 0 0-.156.164 2.8 2.8 0 0 1-1.086 1.308 4.1 4.1 0 0 1-.52-2.55c.066.533.238 1.06.52 1.55M85.799 2q.296.05.587.11a9.9 9.9 0 0 1 .88 4.592A10 10 0 0 0 85.799 2" opacity=".15"/><path fill="#000" d="M95.117 20.837c.024 1.11-.44 2.18-1.286 2.965-.845.785-1.998 1.216-3.193 1.194-1.209-.005-2.364-.46-3.207-1.265-.842-.805-1.3-1.89-1.272-3.012q.003-.24.021-.48a4.06 4.06 0 0 0 1.251 2.492c.843.804 1.998 1.26 3.207 1.265 1.195.022 2.348-.409 3.193-1.194a3.95 3.95 0 0 0 1.278-2.624q.033.324.008.659m-3.425-7.194a.245.245 0 0 1 0 .315 4.2 4.2 0 0 0-.87 2.068 4.1 4.1 0 0 1 .455-2.433l.089-.035a.29.29 0 0 1 .326.085M85.799 1c6.648 1.116 11.5 6.465 11.557 12.737q.003.135-.011.27a10.5 10.5 0 0 0 3.481-1.798c.3.917.45 1.87.45 2.828q.002.28-.012.557a9 9 0 0 0-.438-2.385 10.5 10.5 0 0 1-3.481 1.799q.015-.135.011-.27C97.301 8.65 92.73 3.433 86.386 2.11A10 10 0 0 0 85.799 1m1.466 5.702q.013.247.013.497a9.3 9.3 0 0 1-1.366 4.856 9.5 9.5 0 0 1-2.105-3.588c-2.29 1.774-3.663 4.357-3.796 7.109v-.009C80 15.39 80 15.214 80 15.037c-.006-2.923 1.39-5.697 3.807-7.57a9.5 9.5 0 0 0 2.105 3.588 9.34 9.34 0 0 0 1.343-4.178Z" opacity=".35"/><path d="M104 0h26v26h-26z"/><path fill="#000" d="M111.8 1c6.647 1.116 11.5 6.465 11.556 12.737q.003.135-.011.27a10.5 10.5 0 0 0 3.481-1.798c.3.917.45 1.87.45 2.828.05 5.385-4.555 9.815-10.352 9.96-5.798.144-10.651-4.05-10.913-9.43-.011-.177-.011-.353-.011-.53-.006-2.923 1.39-5.697 3.807-7.57a9.5 9.5 0 0 0 2.105 3.588 9.3 9.3 0 0 0 1.366-4.856A10 10 0 0 0 111.8 1m5.637 11.542-.071.016c-3.12 1.207-5.168 4.023-5.207 7.161-.029 1.122.43 2.207 1.272 3.012.843.804 1.998 1.26 3.207 1.265 1.195.022 2.348-.409 3.193-1.194s1.31-1.856 1.286-2.965c.122-1.562-.786-3.037-2.298-3.73a.3.3 0 0 0-.235-.003.27.27 0 0 0-.156.164 2.8 2.8 0 0 1-1.086 1.308c-.846-1.474-.71-3.268.35-4.618a.245.245 0 0 0 0-.315.29.29 0 0 0-.326-.085Z" opacity=".25"/><path fill="#FFF" d="M106.012 15.576c.266 5.376 5.118 9.565 10.912 9.42 5.596-.14 10.08-4.272 10.34-9.402q.012.221.011.443c.05 5.385-4.554 9.815-10.351 9.96-5.798.144-10.651-4.05-10.913-9.43-.011-.177-.011-.353-.011-.53l.005-.313Zm11.68-2.933a.245.245 0 0 1 0 .315q-.24.304-.415.635c-2.912 1.162-4.869 3.733-5.097 6.647a4 4 0 0 1-.021-.52c.039-3.14 2.086-5.955 5.207-7.162a.29.29 0 0 1 .326.085m-.35 4.933a2.8 2.8 0 0 0 1.086-1.308.27.27 0 0 1 .156-.164.3.3 0 0 1 .235.003c1.512.693 2.42 2.168 2.298 3.73q.004.172-.009.345c-.138-1.308-.991-2.48-2.29-3.075a.3.3 0 0 0-.234-.003.27.27 0 0 0-.156.164 2.8 2.8 0 0 1-1.086 1.308 4.1 4.1 0 0 1-.52-2.55c.066.533.238 1.06.52 1.55M111.799 2q.296.05.587.11a9.9 9.9 0 0 1 .88 4.592A10 10 0 0 0 111.799 2" opacity=".15"/><path fill="#000" d="M121.117 20.837c.024 1.11-.44 2.18-1.286 2.965-.845.785-1.998 1.216-3.193 1.194-1.209-.005-2.364-.46-3.207-1.265-.842-.805-1.3-1.89-1.272-3.012q.003-.24.021-.48a4.06 4.06 0 0 0 1.251 2.492c.843.804 1.998 1.26 3.207 1.265 1.195.022 2.348-.409 3.193-1.194a3.95 3.95 0 0 0 1.278-2.624q.033.324.008.659m-3.425-7.194a.245.245 0 0 1 0 .315 4.2 4.2 0 0 0-.87 2.068 4.1 4.1 0 0 1 .455-2.433l.089-.035a.29.29 0 0 1 .326.085M111.799 1c6.648 1.116 11.5 6.465 11.557 12.737q.003.135-.011.27a10.5 10.5 0 0 0 3.481-1.798c.3.917.45 1.87.45 2.828q.002.28-.012.557a9 9 0 0 0-.438-2.385 10.5 10.5 0 0 1-3.481 1.799q.015-.135.011-.27c-.055-6.088-4.626-11.304-10.97-12.628a10 10 0 0 0-.587-1.11m1.466 5.702q.013.247.013.497a9.3 9.3 0 0 1-1.366 4.856 9.5 9.5 0 0 1-2.105-3.588c-2.29 1.774-3.663 4.357-3.796 7.109v-.009c-.011-.177-.011-.353-.011-.53-.006-2.923 1.39-5.697 3.807-7.57a9.5 9.5 0 0 0 2.105 3.588 9.34 9.34 0 0 0 1.343-4.178Z" opacity=".35"/></g></svg>