<svg xmlns="http://www.w3.org/2000/svg" width="60px" height="26px" viewBox="0 0 60 26"><g fill="#89A" fill-rule="evenodd"><path d="M14.187 2.6a6.4 6.4 0 0 1-1.32 2c-.56.52-1.08.867-1.574 1.04a9.5 9.5 0 0 1-1.466.227c.026-1.427.386-2.667 1.106-3.707C11.653 1.107 12.84.387 14.52 0c.04.133.067.253.08.347l.013.253c0 .627-.146 1.293-.426 2m-1.92 3.333c.973-.333 1.8-.493 2.493-.493 1.133 0 2.16.307 3.067.92.24.2.48.413.733.64.253.24.493.493.747.813-.747.654-1.294 1.227-1.627 1.734-.64.88-.947 1.88-.947 2.973q0 1.8 1 3.24c.654.947 1.414 1.547 2.267 1.813a13 13 0 0 1-.72 1.787c-.28.6-.627 1.213-1.027 1.84C17.027 23.067 15.8 24 14.56 24c-.52 0-1.2-.16-2.04-.467-.827-.28-1.533-.426-2.147-.426-.626 0-1.32.146-2.066.453-.8.293-1.427.44-1.894.44-1.44 0-2.88-1.227-4.293-3.667C.707 17.853 0 15.44 0 13.04c0-2.2.533-4 1.613-5.4 1.08-1.387 2.44-2.093 4.094-2.093.706 0 1.56.146 2.546.44 1.014.293 1.667.44 1.974.44.386 0 1.053-.174 2.04-.494"/><path fill-rule="nonzero" d="M51.904 15.7c-.689 0-1.25-.563-1.25-1.256s.561-1.256 1.25-1.256 1.249.563 1.249 1.256-.56 1.257-1.25 1.257m-13.807 0c-.689 0-1.249-.564-1.249-1.257s.56-1.256 1.25-1.256c.688 0 1.248.563 1.248 1.256s-.56 1.257-1.249 1.257m14.256-7.569 2.497-4.349a.525.525 0 0 0-.19-.713.52.52 0 0 0-.71.191L51.42 7.665A15.3 15.3 0 0 0 45 6.284c-2.317 0-4.488.494-6.42 1.381l-2.53-4.404a.52.52 0 0 0-.71-.191.524.524 0 0 0-.19.713l2.497 4.35C33.361 10.477 30.428 14.842 30 20h30c-.43-5.157-3.361-9.522-7.648-11.868"/></g></svg>