<svg xmlns="http://www.w3.org/2000/svg" width="178" height="102" viewBox="0 0 178 102"><g fill="none" fill-rule="evenodd"><path fill="#345" d="M10.6.667C19.125 2.097 25.348 8.957 25.42 17a3 3 0 0 1-.014.347 13.4 13.4 0 0 0 4.464-2.307c.384 1.176.578 2.398.576 3.627.064 6.905-5.84 12.586-13.275 12.771-7.434.185-13.658-5.193-13.993-12.091-.014-.227-.014-.454-.014-.68-.008-3.749 1.781-7.306 4.882-9.707a12.2 12.2 0 0 0 2.7 4.6 11.94 11.94 0 0 0 1.751-6.227A12.8 12.8 0 0 0 10.6.667m36 0C55.125 2.097 61.348 8.957 61.42 17a3 3 0 0 1-.014.347 13.4 13.4 0 0 0 4.464-2.307c.384 1.176.578 2.398.576 3.627.064 6.905-5.84 12.586-13.275 12.771-7.434.185-13.658-5.193-13.993-12.091-.014-.227-.014-.454-.014-.68-.008-3.749 1.781-7.306 4.882-9.707a12.2 12.2 0 0 0 2.7 4.6 11.94 11.94 0 0 0 1.751-6.227A12.8 12.8 0 0 0 46.6.667m36 0C91.125 2.097 97.348 8.957 97.42 17a3 3 0 0 1-.014.347 13.4 13.4 0 0 0 4.464-2.307c.384 1.176.578 2.398.576 3.627.064 6.905-5.84 12.586-13.275 12.771-7.434.185-13.658-5.193-13.993-12.091-.014-.227-.014-.454-.014-.68-.008-3.749 1.781-7.306 4.882-9.707a12.2 12.2 0 0 0 2.7 4.6 11.94 11.94 0 0 0 1.751-6.227A12.8 12.8 0 0 0 82.6.667m36 0c8.525 1.43 14.748 8.29 14.82 16.333a3 3 0 0 1-.014.347 13.4 13.4 0 0 0 4.464-2.307c.384 1.176.578 2.398.576 3.627.064 6.905-5.84 12.586-13.275 12.771-7.434.185-13.658-5.193-13.993-12.091-.014-.227-.014-.454-.014-.68-.008-3.749 1.781-7.306 4.882-9.707a12.2 12.2 0 0 0 2.7 4.6 11.94 11.94 0 0 0 1.751-6.227A12.8 12.8 0 0 0 118.6.667m36 0c8.525 1.43 14.748 8.29 14.82 16.333a3 3 0 0 1-.014.347 13.4 13.4 0 0 0 4.464-2.307c.384 1.176.578 2.398.576 3.627.064 6.905-5.84 12.586-13.275 12.771-7.434.185-13.658-5.193-13.993-12.091-.014-.227-.014-.454-.014-.68-.008-3.749 1.781-7.306 4.882-9.707a12.2 12.2 0 0 0 2.7 4.6 11.94 11.94 0 0 0 1.751-6.227A12.8 12.8 0 0 0 154.6.667m-136.862 15c-4.001 1.547-6.627 5.158-6.677 9.182-.037 1.439.552 2.83 1.632 3.862s2.562 1.616 4.112 1.622c1.532.029 3.011-.524 4.095-1.53s1.68-2.38 1.648-3.803c.158-2.002-1.007-3.894-2.946-4.783a.4.4 0 0 0-.302-.004.34.34 0 0 0-.2.211 3.6 3.6 0 0 1-1.392 1.677c-1.085-1.89-.911-4.19.448-5.922a.315.315 0 0 0 0-.404.38.38 0 0 0-.418-.108m36 0c-4.001 1.547-6.627 5.158-6.677 9.182-.037 1.439.552 2.83 1.632 3.862s2.562 1.616 4.112 1.622c1.532.029 3.011-.524 4.095-1.53s1.68-2.38 1.648-3.803c.158-2.002-1.007-3.894-2.946-4.783a.4.4 0 0 0-.302-.004.34.34 0 0 0-.2.211 3.6 3.6 0 0 1-1.392 1.677c-1.085-1.89-.911-4.19.448-5.922a.315.315 0 0 0 0-.404.38.38 0 0 0-.418-.108m36 0c-4.001 1.547-6.627 5.158-6.677 9.182-.037 1.439.552 2.83 1.632 3.862s2.562 1.616 4.112 1.622c1.532.029 3.011-.524 4.095-1.53s1.68-2.38 1.648-3.803c.158-2.002-1.007-3.894-2.946-4.783a.4.4 0 0 0-.302-.004.34.34 0 0 0-.2.211 3.6 3.6 0 0 1-1.392 1.677c-1.085-1.89-.911-4.19.448-5.922a.315.315 0 0 0 0-.404.38.38 0 0 0-.418-.108m36 0c-4.001 1.547-6.627 5.158-6.677 9.182-.037 1.439.552 2.83 1.632 3.862s2.562 1.616 4.112 1.622c1.532.029 3.011-.524 4.095-1.53s1.68-2.38 1.648-3.803c.158-2.002-1.007-3.894-2.946-4.783a.4.4 0 0 0-.302-.004.34.34 0 0 0-.2.211 3.6 3.6 0 0 1-1.392 1.677c-1.085-1.89-.911-4.19.448-5.922a.315.315 0 0 0 0-.404.38.38 0 0 0-.418-.108m36 0c-4.001 1.547-6.627 5.158-6.677 9.182-.037 1.439.552 2.83 1.632 3.862s2.562 1.616 4.112 1.622c1.532.029 3.011-.524 4.095-1.53s1.68-2.38 1.648-3.803c.158-2.002-1.007-3.894-2.946-4.783a.4.4 0 0 0-.302-.004.34.34 0 0 0-.2.211 3.6 3.6 0 0 1-1.392 1.677c-1.085-1.89-.911-4.19.448-5.922a.315.315 0 0 0 0-.404.38.38 0 0 0-.418-.108"/><path fill="#FF8000" d="M10.6 35.667c8.525 1.43 14.748 8.29 14.82 16.333a3 3 0 0 1-.014.347 13.4 13.4 0 0 0 4.464-2.307c.384 1.176.578 2.398.576 3.627.064 6.905-5.84 12.586-13.275 12.771-7.434.185-13.658-5.193-13.993-12.091-.014-.227-.014-.454-.014-.68-.008-3.749 1.781-7.306 4.882-9.707a12.2 12.2 0 0 0 2.7 4.6 11.94 11.94 0 0 0 1.751-6.227 12.8 12.8 0 0 0-1.897-6.666m36 0c8.525 1.43 14.748 8.29 14.82 16.333a3 3 0 0 1-.014.347 13.4 13.4 0 0 0 4.464-2.307c.384 1.176.578 2.398.576 3.627.064 6.905-5.84 12.586-13.275 12.771-7.434.185-13.658-5.193-13.993-12.091-.014-.227-.014-.454-.014-.68-.008-3.749 1.781-7.306 4.882-9.707a12.2 12.2 0 0 0 2.7 4.6 11.94 11.94 0 0 0 1.751-6.227 12.8 12.8 0 0 0-1.897-6.666m36 0c8.525 1.43 14.748 8.29 14.82 16.333a3 3 0 0 1-.014.347 13.4 13.4 0 0 0 4.464-2.307c.384 1.176.578 2.398.576 3.627.064 6.905-5.84 12.586-13.275 12.771-7.434.185-13.658-5.193-13.993-12.091-.014-.227-.014-.454-.014-.68-.008-3.749 1.781-7.306 4.882-9.707a12.2 12.2 0 0 0 2.7 4.6 11.94 11.94 0 0 0 1.751-6.227 12.8 12.8 0 0 0-1.897-6.666m36 0c8.525 1.43 14.748 8.29 14.82 16.333a3 3 0 0 1-.014.347 13.4 13.4 0 0 0 4.464-2.307c.384 1.176.578 2.398.576 3.627.064 6.905-5.84 12.586-13.275 12.771-7.434.185-13.658-5.193-13.993-12.091-.014-.227-.014-.454-.014-.68-.008-3.749 1.781-7.306 4.882-9.707a12.2 12.2 0 0 0 2.7 4.6 11.94 11.94 0 0 0 1.751-6.227 12.8 12.8 0 0 0-1.897-6.666m36 0c8.525 1.43 14.748 8.29 14.82 16.333a3 3 0 0 1-.014.347 13.4 13.4 0 0 0 4.464-2.307c.384 1.176.578 2.398.576 3.627.064 6.905-5.84 12.586-13.275 12.771-7.434.185-13.658-5.193-13.993-12.091-.014-.227-.014-.454-.014-.68-.008-3.749 1.781-7.306 4.882-9.707a12.2 12.2 0 0 0 2.7 4.6 11.94 11.94 0 0 0 1.751-6.227 12.8 12.8 0 0 0-1.897-6.666"/><path fill="#FFE870" d="M18.157 50.775a.315.315 0 0 1-.001.404c-1.359 1.731-1.533 4.031-.448 5.922a3.6 3.6 0 0 0 1.393-1.677.34.34 0 0 1 .199-.21.4.4 0 0 1 .302.003c1.939.89 3.104 2.78 2.946 4.783.031 1.423-.564 2.796-1.648 3.803-1.084 1.006-2.563 1.559-4.095 1.53-1.55-.006-3.032-.59-4.112-1.622-1.08-1.031-1.669-2.423-1.632-3.862.05-4.024 2.676-7.635 6.677-9.182a.38.38 0 0 1 .419.108m36 0a.315.315 0 0 1-.001.404c-1.359 1.731-1.533 4.031-.448 5.922a3.6 3.6 0 0 0 1.393-1.677.34.34 0 0 1 .199-.21.4.4 0 0 1 .302.003c1.939.89 3.104 2.78 2.946 4.783.031 1.423-.564 2.796-1.648 3.803-1.084 1.006-2.563 1.559-4.095 1.53-1.55-.006-3.032-.59-4.112-1.622-1.08-1.031-1.669-2.423-1.632-3.862.05-4.024 2.676-7.635 6.677-9.182a.38.38 0 0 1 .419.108m36 0a.315.315 0 0 1-.001.404c-1.359 1.731-1.533 4.031-.448 5.922a3.6 3.6 0 0 0 1.393-1.677.34.34 0 0 1 .199-.21.4.4 0 0 1 .302.003c1.939.89 3.104 2.78 2.946 4.783.031 1.423-.564 2.796-1.648 3.803-1.084 1.006-2.563 1.559-4.095 1.53-1.55-.006-3.032-.59-4.112-1.622-1.08-1.031-1.669-2.423-1.632-3.862.05-4.024 2.676-7.635 6.677-9.182a.38.38 0 0 1 .419.108m36 0a.315.315 0 0 1-.001.404c-1.359 1.731-1.533 4.031-.448 5.922a3.6 3.6 0 0 0 1.393-1.677.34.34 0 0 1 .199-.21.4.4 0 0 1 .302.003c1.939.89 3.104 2.78 2.946 4.783.031 1.423-.564 2.796-1.648 3.803-1.084 1.006-2.563 1.559-4.095 1.53-1.55-.006-3.032-.59-4.112-1.622-1.08-1.031-1.669-2.423-1.632-3.862.05-4.024 2.676-7.635 6.677-9.182a.38.38 0 0 1 .419.108m36 0a.315.315 0 0 1-.001.404c-1.359 1.731-1.533 4.031-.448 5.922a3.6 3.6 0 0 0 1.393-1.677.34.34 0 0 1 .199-.21.4.4 0 0 1 .302.003c1.939.89 3.104 2.78 2.946 4.783.031 1.423-.564 2.796-1.648 3.803-1.084 1.006-2.563 1.559-4.095 1.53-1.55-.006-3.032-.59-4.112-1.622-1.08-1.031-1.669-2.423-1.632-3.862.05-4.024 2.676-7.635 6.677-9.182a.38.38 0 0 1 .419.108"/><path fill="#40BCF4" d="M10.6 70.667c8.525 1.43 14.748 8.29 14.82 16.333a3 3 0 0 1-.014.347 13.4 13.4 0 0 0 4.464-2.307c.384 1.176.578 2.398.576 3.627.064 6.905-5.84 12.586-13.275 12.771-7.434.185-13.658-5.193-13.993-12.091-.014-.227-.014-.454-.014-.68-.008-3.749 1.781-7.306 4.882-9.707a12.2 12.2 0 0 0 2.7 4.6 11.94 11.94 0 0 0 1.751-6.227 12.8 12.8 0 0 0-1.897-6.666m36 0c8.525 1.43 14.748 8.29 14.82 16.333a3 3 0 0 1-.014.347 13.4 13.4 0 0 0 4.464-2.307c.384 1.176.578 2.398.576 3.627.064 6.905-5.84 12.586-13.275 12.771-7.434.185-13.658-5.193-13.993-12.091-.014-.227-.014-.454-.014-.68-.008-3.749 1.781-7.306 4.882-9.707a12.2 12.2 0 0 0 2.7 4.6 11.94 11.94 0 0 0 1.751-6.227 12.8 12.8 0 0 0-1.897-6.666m36 0c8.525 1.43 14.748 8.29 14.82 16.333a3 3 0 0 1-.014.347 13.4 13.4 0 0 0 4.464-2.307c.384 1.176.578 2.398.576 3.627.064 6.905-5.84 12.586-13.275 12.771-7.434.185-13.658-5.193-13.993-12.091-.014-.227-.014-.454-.014-.68-.008-3.749 1.781-7.306 4.882-9.707a12.2 12.2 0 0 0 2.7 4.6 11.94 11.94 0 0 0 1.751-6.227 12.8 12.8 0 0 0-1.897-6.666m36 0c8.525 1.43 14.748 8.29 14.82 16.333a3 3 0 0 1-.014.347 13.4 13.4 0 0 0 4.464-2.307c.384 1.176.578 2.398.576 3.627.064 6.905-5.84 12.586-13.275 12.771-7.434.185-13.658-5.193-13.993-12.091-.014-.227-.014-.454-.014-.68-.008-3.749 1.781-7.306 4.882-9.707a12.2 12.2 0 0 0 2.7 4.6 11.94 11.94 0 0 0 1.751-6.227 12.8 12.8 0 0 0-1.897-6.666m36 0c8.525 1.43 14.748 8.29 14.82 16.333a3 3 0 0 1-.014.347 13.4 13.4 0 0 0 4.464-2.307c.384 1.176.578 2.398.576 3.627.064 6.905-5.84 12.586-13.275 12.771-7.434.185-13.658-5.193-13.993-12.091-.014-.227-.014-.454-.014-.68-.008-3.749 1.781-7.306 4.882-9.707a12.2 12.2 0 0 0 2.7 4.6 11.94 11.94 0 0 0 1.751-6.227 12.8 12.8 0 0 0-1.897-6.666"/><path fill="#B8F8FF" d="M18.157 85.775a.315.315 0 0 1-.001.404c-1.359 1.731-1.533 4.031-.448 5.922a3.6 3.6 0 0 0 1.393-1.677.34.34 0 0 1 .199-.21.4.4 0 0 1 .302.003c1.939.89 3.104 2.78 2.946 4.783.031 1.423-.564 2.796-1.648 3.803-1.084 1.006-2.563 1.559-4.095 1.53-1.55-.006-3.032-.59-4.112-1.622-1.08-1.031-1.669-2.423-1.632-3.862.05-4.024 2.676-7.635 6.677-9.182a.38.38 0 0 1 .419.108m36 0a.315.315 0 0 1-.001.404c-1.359 1.731-1.533 4.031-.448 5.922a3.6 3.6 0 0 0 1.393-1.677.34.34 0 0 1 .199-.21.4.4 0 0 1 .302.003c1.939.89 3.104 2.78 2.946 4.783.031 1.423-.564 2.796-1.648 3.803-1.084 1.006-2.563 1.559-4.095 1.53-1.55-.006-3.032-.59-4.112-1.622-1.08-1.031-1.669-2.423-1.632-3.862.05-4.024 2.676-7.635 6.677-9.182a.38.38 0 0 1 .419.108m36 0a.315.315 0 0 1-.001.404c-1.359 1.731-1.533 4.031-.448 5.922a3.6 3.6 0 0 0 1.393-1.677.34.34 0 0 1 .199-.21.4.4 0 0 1 .302.003c1.939.89 3.104 2.78 2.946 4.783.031 1.423-.564 2.796-1.648 3.803-1.084 1.006-2.563 1.559-4.095 1.53-1.55-.006-3.032-.59-4.112-1.622-1.08-1.031-1.669-2.423-1.632-3.862.05-4.024 2.676-7.635 6.677-9.182a.38.38 0 0 1 .419.108m36 0a.315.315 0 0 1-.001.404c-1.359 1.731-1.533 4.031-.448 5.922a3.6 3.6 0 0 0 1.393-1.677.34.34 0 0 1 .199-.21.4.4 0 0 1 .302.003c1.939.89 3.104 2.78 2.946 4.783.031 1.423-.564 2.796-1.648 3.803-1.084 1.006-2.563 1.559-4.095 1.53-1.55-.006-3.032-.59-4.112-1.622-1.08-1.031-1.669-2.423-1.632-3.862.05-4.024 2.676-7.635 6.677-9.182a.38.38 0 0 1 .419.108m36 0a.315.315 0 0 1-.001.404c-1.359 1.731-1.533 4.031-.448 5.922a3.6 3.6 0 0 0 1.393-1.677.34.34 0 0 1 .199-.21.4.4 0 0 1 .302.003c1.939.89 3.104 2.78 2.946 4.783.031 1.423-.564 2.796-1.648 3.803-1.084 1.006-2.563 1.559-4.095 1.53-1.55-.006-3.032-.59-4.112-1.622-1.08-1.031-1.669-2.423-1.632-3.862.05-4.024 2.676-7.635 6.677-9.182a.38.38 0 0 1 .419.108"/></g></svg>