<svg xmlns="http://www.w3.org/2000/svg" width="40px" height="24px" viewBox="0 0 40 24"><path fill="#BCD" d="M2.764 1.343C2.764.6 2.145 0 1.382 0 .618 0 0 .6 0 1.343v14.312C0 16.398.618 17 1.382 17s1.382-.602 1.382-1.345V9.999c0-1.385 1.157-2.513 2.582-2.513S7.93 8.614 7.93 9.999v5.656c0 .743.618 1.345 1.38 1.345.765 0 1.383-.602 1.383-1.345V9.999c0-2.868-2.399-5.2-5.347-5.2-.936 0-1.816.235-2.582.65zM21.687 9.75c0-1.25 1.045-2.265 2.329-2.265 1.28 0 2.327 1.016 2.327 2.265v5.904c0 .743.618 1.345 1.381 1.345.761 0 1.38-.602 1.38-1.345V9.75c0-2.73-2.283-4.952-5.088-4.952a5.14 5.14 0 0 0-3.71 1.565 5.15 5.15 0 0 0-3.71-1.565c-2.809 0-5.092 2.222-5.092 4.952v5.904c0 .743.619 1.345 1.382 1.345.764 0 1.381-.602 1.381-1.345V9.75c0-1.25 1.045-2.265 2.33-2.265 1.282 0 2.325 1.016 2.325 2.265v5.904c0 .743.62 1.345 1.384 1.345.762 0 1.381-.602 1.381-1.345zm7.98-4.838c.7-.293 1.512.022 1.813.702 0 0 1.699 4.438 2.935 7.236 1.237-2.798 2.933-7.235 2.933-7.235.301-.681 1.115-.996 1.815-.703a1.33 1.33 0 0 1 .724 1.765l-4.201 9.509a1.38 1.38 0 0 1-1.27.813c-.55 0-1.051-.32-1.27-.813l-4.204-9.508c-.3-.684.023-1.472.724-1.766"/></svg>