<svg xmlns="http://www.w3.org/2000/svg" width="89px" height="13px" viewBox="0 0 89 13"><defs><radialGradient id="b" cx="50%" cy="11.0090529%" r="284.797588%" fx="50%" fy="11.0090529%" gradientTransform="matrix(.17556 0 0 1 .412 0)"><stop offset="0%" stop-color="#F7CF3E"/><stop offset="100%" stop-color="#F7CE3D"/></radialGradient><linearGradient id="a" x1="-2.22044605e-14%" x2="100%" y1="50%" y2="50%"><stop offset="0%" stop-color="#FFD652"/><stop offset="100%" stop-color="#CFA51B"/></linearGradient></defs><g fill="none"><path fill="url(#a)" d="m.683 1.05 2.181 1.09a.157.157 0 0 1 0 .282L.228 3.74A.157.157 0 0 1 0 3.6V1.472a.472.472 0 0 1 .683-.422m2.69 1.345L6.01 3.713a.157.157 0 0 1 0 .282L3.373 5.313a.157.157 0 0 1-.227-.14V2.536a.157.157 0 0 1 .227-.14M6.52 3.968l2.637 1.318a.157.157 0 0 1 0 .282L6.519 6.886a.157.157 0 0 1-.227-.14V4.108a.157.157 0 0 1 .227-.141M9.665 5.54l2.074 1.037a.472.472 0 0 1 0 .844L9.665 8.459a.157.157 0 0 1-.228-.14V5.681a.157.157 0 0 1 .228-.141M.228 7.114l2.636 1.318a.157.157 0 0 1 0 .282L.228 10.032A.157.157 0 0 1 0 9.892V7.253a.157.157 0 0 1 .228-.14m3.145 1.573 2.637 1.318a.157.157 0 0 1 0 .281l-2.637 1.319a.157.157 0 0 1-.227-.14V8.826a.157.157 0 0 1 .227-.14M.228 3.968l2.636 1.318a.157.157 0 0 1 0 .282L.228 6.886A.157.157 0 0 1 0 6.746V4.108a.157.157 0 0 1 .228-.141M3.373 5.54 6.01 6.859a.157.157 0 0 1 0 .282L3.373 8.459a.157.157 0 0 1-.227-.14V5.681a.157.157 0 0 1 .227-.141M6.52 7.114l2.637 1.318a.157.157 0 0 1 0 .282L6.52 10.032a.157.157 0 0 1-.227-.14V7.253a.157.157 0 0 1 .227-.14M.228 10.26l2.636 1.318a.157.157 0 0 1 0 .281L.683 12.95A.472.472 0 0 1 0 12.528V10.4a.157.157 0 0 1 .228-.14"/><path fill="url(#b)" d="M5.526 1.086h1.62v8.538q0 1.13-.354 1.847-.355.717-.886 1.13a3.2 3.2 0 0 1-1.14.574q-.606.16-1.113.16-1.265 0-2.134-.649-.87-.65-1.105-1.966L2 10.366q.135.675.557 1.063.42.388 1.096.388.608 0 .97-.236.362-.237.566-.616.203-.38.27-.869.067-.49.067-.995zm10.4 11.946h-1.52V11.8h-.033q-.287.642-.996 1.038t-1.636.396q-.59 0-1.114-.177a2.5 2.5 0 0 1-.92-.548 2.6 2.6 0 0 1-.632-.953q-.236-.582-.236-1.375V5.034h1.518V9.76q0 .556.152.953t.405.641.582.354.683.11q.473 0 .878-.152.405-.151.708-.48.304-.33.473-.836a3.8 3.8 0 0 0 .169-1.198V5.034h1.518zm6.077-5.99a2.3 2.3 0 0 0-.667-.565q-.396-.228-.97-.228-.54 0-.936.228t-.397.666a.76.76 0 0 0 .228.574q.228.219.54.354t.667.203.607.118q.49.118.92.287t.742.439.49.658q.176.387.176.944 0 .675-.287 1.156-.285.48-.742.785-.456.303-1.038.438-.581.135-1.172.135-.996 0-1.746-.303-.751-.304-1.342-1.114l1.148-.945q.371.372.826.658.456.287 1.114.287.287 0 .582-.059.295-.06.523-.186t.371-.32a.73.73 0 0 0 .144-.447.77.77 0 0 0-.211-.557 1.5 1.5 0 0 0-.507-.346 3.7 3.7 0 0 0-.624-.202q-.33-.076-.582-.127a10 10 0 0 1-.928-.27 2.8 2.8 0 0 1-.776-.405 1.9 1.9 0 0 1-.54-.64q-.202-.39-.202-.963 0-.624.261-1.088.262-.464.692-.768a3.1 3.1 0 0 1 .979-.455 4.12 4.12 0 0 1 2.657.152q.743.304 1.181 1.012zm7.525-.692H27.35v3.628q0 .337.017.666.018.33.127.591a.96.96 0 0 0 .337.422q.228.16.667.16.27 0 .557-.05.285-.051.523-.186v1.383q-.27.153-.7.211-.431.06-.667.06-.878 0-1.358-.245t-.709-.633a2.05 2.05 0 0 1-.27-.869q-.042-.48-.042-.97V6.35h-1.755V5.034h1.755V2.79h1.518v2.244h2.177zm.124-5.264h1.687l2.632 9.55h.034l2.817-9.55h1.856l2.818 9.55h.034l2.632-9.55h1.687l-3.476 11.946H40.67L37.767 3.28h-.034l-2.885 9.752h-1.704zM45.55 6.013a4.2 4.2 0 0 1 1.485-.886 5.1 5.1 0 0 1 1.687-.295q.877 0 1.51.22.633.218 1.038.59.405.37.599.852.194.48.194 1.004v4.083q0 .422.017.776.016.354.05.675h-1.35q-.05-.608-.05-1.215h-.034q-.506.777-1.198 1.097-.691.32-1.603.32a3.7 3.7 0 0 1-1.063-.151 2.6 2.6 0 0 1-.886-.456 2.2 2.2 0 0 1-.598-.75 2.3 2.3 0 0 1-.22-1.038q0-.776.346-1.3.346-.522.945-.852.6-.329 1.4-.472a9.7 9.7 0 0 1 1.713-.144h1.113v-.337a1.665 1.665 0 0 0-1.063-1.544 2.2 2.2 0 0 0-.843-.143 3.1 3.1 0 0 0-1.367.295 2.6 2.6 0 0 0-.49.295q-.218.17-.42.32zm4.286 3.172q-.54 0-1.106.06-.565.057-1.029.227-.464.169-.76.472-.294.304-.294.776 0 .692.464.996t1.257.304q.624 0 1.063-.211.438-.21.708-.549.27-.337.388-.75.118-.414.118-.819v-.506zm8.488-2.835H56.15v3.628q0 .337.017.666.016.33.126.591a.96.96 0 0 0 .337.422q.228.16.667.16.27 0 .557-.05.286-.051.523-.186v1.383q-.27.153-.7.211-.431.06-.667.06-.878 0-1.358-.245t-.709-.633a2.05 2.05 0 0 1-.27-.869q-.042-.48-.042-.97V6.35h-1.755V5.034h1.755V2.79h1.519v2.244h2.176zm6.974.81a3.2 3.2 0 0 0-.886-.666q-.464-.228-1.105-.228-.624 0-1.088.228t-.776.624a2.8 2.8 0 0 0-.473.911q-.16.514-.16 1.072 0 .555.186 1.054.185.498.523.87.337.37.81.581.472.21 1.062.211.642 0 1.097-.228a2.8 2.8 0 0 0 .844-.666l1.08 1.08a3.4 3.4 0 0 1-1.375.945 4.8 4.8 0 0 1-1.662.286 4.6 4.6 0 0 1-1.696-.303 3.9 3.9 0 0 1-1.325-.852 3.8 3.8 0 0 1-.86-1.316 4.6 4.6 0 0 1-.304-1.696q0-.928.304-1.704.303-.777.852-1.333t1.316-.869a4.5 4.5 0 0 1 1.713-.312q.877 0 1.678.312.802.312 1.392.953zM67.712.276h1.518v5.99h.034q.287-.64.995-1.038.709-.396 1.637-.396.573 0 1.105.177t.928.548q.397.372.633.954t.236 1.375v5.146H73.28V8.308q0-.558-.152-.954a1.74 1.74 0 0 0-.405-.64 1.5 1.5 0 0 0-.582-.355 2.2 2.2 0 0 0-.684-.11q-.472 0-.877.152t-.709.481a2.3 2.3 0 0 0-.472.835 3.8 3.8 0 0 0-.169 1.198v4.117h-1.518z" transform="translate(13 -.5)"/></g></svg>