<svg xmlns="http://www.w3.org/2000/svg" width="62px" height="20px" viewBox="0 0 62 20"><g fill="none"><path fill="#F7CF3E" d="m.455 11.033 1.455.727a.105.105 0 0 1 0 .188l-1.758.879A.105.105 0 0 1 0 12.733v-1.418a.315.315 0 0 1 .455-.282m1.794.897 1.758.879a.105.105 0 0 1 0 .188l-1.758.878a.105.105 0 0 1-.152-.093v-1.758a.105.105 0 0 1 .152-.094m2.097 1.049 1.758.879a.105.105 0 0 1 0 .187l-1.758.88a.105.105 0 0 1-.152-.095v-1.758a.105.105 0 0 1 .152-.093m2.097 1.048 1.383.692a.315.315 0 0 1 0 .562l-1.383.692a.105.105 0 0 1-.151-.094V14.12a.105.105 0 0 1 .151-.094m-6.291 1.05 1.758.879a.105.105 0 0 1 0 .187l-1.758.88A.105.105 0 0 1 0 16.926V15.17a.105.105 0 0 1 .152-.094m2.097 1.048 1.758.88a.105.105 0 0 1 0 .187l-1.758.879a.105.105 0 0 1-.152-.094v-1.758a.105.105 0 0 1 .152-.094M.152 12.98l1.758.879a.105.105 0 0 1 0 .187l-1.758.88A.105.105 0 0 1 0 14.83v-1.758a.105.105 0 0 1 .152-.093m2.097 1.048 1.758.88a.105.105 0 0 1 0 .187l-1.758.879a.105.105 0 0 1-.152-.094V14.12a.105.105 0 0 1 .152-.094m2.097 1.049 1.758.879a.105.105 0 0 1 0 .187l-1.758.88a.105.105 0 0 1-.152-.095V15.17a.105.105 0 0 1 .152-.094M.152 17.173l1.758.879a.105.105 0 0 1 0 .188l-1.455.727A.315.315 0 0 1 0 18.685v-1.418a.105.105 0 0 1 .152-.094m11.789-6.398h1.156v6.089q0 .805-.253 1.317-.254.511-.632.807a2.25 2.25 0 0 1-.812.409 3 3 0 0 1-.794.114q-.903 0-1.523-.463-.62-.464-.788-1.402l1.131-.253q.097.482.397.758.302.277.783.277.432 0 .692-.168.258-.17.403-.44.144-.27.192-.62a5 5 0 0 0 .048-.71zm7.417 8.52h-1.083v-.879h-.024q-.205.458-.71.74a2.35 2.35 0 0 1-1.167.283 2.5 2.5 0 0 1-.795-.126 1.8 1.8 0 0 1-.655-.392 1.9 1.9 0 0 1-.452-.68 2.6 2.6 0 0 1-.168-.98v-3.67h1.083v3.369q0 .397.108.68.109.282.289.457.18.174.415.253.235.078.487.078.338 0 .626-.108.289-.108.506-.343.216-.235.337-.596.12-.36.12-.854V13.59h1.083zm4.335-4.272a1.7 1.7 0 0 0-.476-.404 1.37 1.37 0 0 0-.692-.162q-.384 0-.667.162a.52.52 0 0 0-.283.476q0 .252.162.409.163.156.385.253.223.096.476.144l.433.084q.348.085.656.205.305.12.53.313.221.192.348.469.126.278.126.674 0 .481-.204.824a1.7 1.7 0 0 1-.53.56 2.2 2.2 0 0 1-.74.313 3.7 3.7 0 0 1-.836.096q-.71 0-1.245-.217-.535-.216-.957-.794l.818-.674q.265.265.59.47t.794.204q.204 0 .415-.042a1.3 1.3 0 0 0 .373-.132.8.8 0 0 0 .265-.23.52.52 0 0 0 .102-.318.55.55 0 0 0-.15-.397 1.1 1.1 0 0 0-.361-.247 2.6 2.6 0 0 0-.445-.144 15 15 0 0 0-.416-.09 7 7 0 0 1-.661-.193 2 2 0 0 1-.554-.289 1.3 1.3 0 0 1-.385-.457 1.5 1.5 0 0 1-.144-.686 1.56 1.56 0 0 1 .68-1.324q.306-.216.697-.324a2.94 2.94 0 0 1 1.896.108q.529.216.842.722zm5.367-.494h-1.553v2.587q0 .241.012.476t.09.42a.7.7 0 0 0 .241.302q.162.114.476.114.192 0 .397-.036.204-.036.373-.132v.986a1.4 1.4 0 0 1-.5.15 4 4 0 0 1-.475.043q-.626 0-.969-.175a1.2 1.2 0 0 1-.505-.45 1.5 1.5 0 0 1-.193-.62q-.03-.344-.03-.693V14.53h-1.251v-.938h1.251v-1.6h1.083v1.6h1.553zm.088-3.754h1.203l1.877 6.81h.024l2.01-6.81h1.324l2.01 6.81h.023l1.878-6.81H40.7l-2.479 8.52h-1.215l-2.07-6.956h-.024l-2.058 6.955H31.64zm11.34 3.514q.456-.422 1.058-.632.601-.21 1.204-.21.626 0 1.077.156t.74.42q.288.265.427.609.138.343.138.715v2.913q0 .3.012.553t.036.481h-.962a10 10 0 0 1-.036-.866h-.025q-.36.554-.854.782-.494.23-1.143.229-.397 0-.758-.108a1.9 1.9 0 0 1-.632-.325 1.55 1.55 0 0 1-.427-.536 1.66 1.66 0 0 1-.157-.74q0-.554.247-.926.248-.375.674-.608.427-.235.999-.337a7 7 0 0 1 1.221-.102h.794v-.241a1.19 1.19 0 0 0-.758-1.101 1.6 1.6 0 0 0-.601-.102 2.2 2.2 0 0 0-.975.21q-.192.09-.35.21-.155.121-.3.23zm3.056 2.262q-.386 0-.788.042a3 3 0 0 0-.734.162q-.332.12-.542.337a.76.76 0 0 0-.21.554q0 .493.33.71.331.216.897.216.446 0 .758-.15a1.43 1.43 0 0 0 .782-.927q.084-.294.084-.583v-.361zm6.054-2.022h-1.552v2.587q0 .241.012.476t.09.42a.7.7 0 0 0 .24.302q.163.114.476.114.192 0 .397-.036.204-.036.373-.132v.986a1.4 1.4 0 0 1-.5.15 4 4 0 0 1-.475.043q-.626 0-.968-.175a1.2 1.2 0 0 1-.506-.45 1.5 1.5 0 0 1-.192-.62q-.03-.344-.03-.693V14.53H45.71v-.938h1.252v-1.6h1.083v1.6h1.552zm4.974.578a2.3 2.3 0 0 0-.632-.475 1.8 1.8 0 0 0-.788-.163q-.446 0-.776.163-.331.162-.554.445-.222.282-.337.65-.114.366-.114.764 0 .396.132.752.133.354.373.62.24.264.578.415t.758.15q.458 0 .782-.162.325-.163.602-.476l.77.77q-.421.47-.98.674a3.4 3.4 0 0 1-1.186.205 3.3 3.3 0 0 1-1.21-.217 2.7 2.7 0 0 1-1.558-1.546 3.3 3.3 0 0 1-.216-1.21q0-.66.216-1.215a2.8 2.8 0 0 1 .608-.95q.39-.398.939-.62a3.2 3.2 0 0 1 1.221-.223q.626 0 1.197.223.572.222.993.68zm1.72-4.91h1.084v4.272h.024q.204-.457.71-.74a2.35 2.35 0 0 1 1.167-.283q.409 0 .788.127.379.126.662.39.283.266.451.68a2.6 2.6 0 0 1 .169.981v3.67h-1.083v-3.369q0-.397-.109-.68a1.24 1.24 0 0 0-.289-.457q-.18-.174-.415-.253a1.5 1.5 0 0 0-.487-.078q-.337 0-.626.108a1.3 1.3 0 0 0-.505.343 1.6 1.6 0 0 0-.337.596q-.12.36-.12.854v2.936h-1.083z"/><path fill="#678" d="m.455 1.033 1.455.727a.105.105 0 0 1 0 .188l-1.758.879A.105.105 0 0 1 0 2.733V1.315a.315.315 0 0 1 .455-.282m1.794.897 1.758.879a.105.105 0 0 1 0 .188l-1.758.878a.105.105 0 0 1-.152-.093V2.024a.105.105 0 0 1 .152-.094m2.097 1.05 1.758.879a.105.105 0 0 1 0 .187l-1.758.88a.105.105 0 0 1-.152-.095V3.072a.105.105 0 0 1 .152-.093m2.097 1.048 1.383.692a.315.315 0 0 1 0 .562l-1.383.692a.105.105 0 0 1-.151-.094V4.12a.105.105 0 0 1 .151-.094M.152 5.076l1.758.879a.105.105 0 0 1 0 .187l-1.758.88A.105.105 0 0 1 0 6.926V5.17a.105.105 0 0 1 .152-.094m2.097 1.048 1.758.88a.105.105 0 0 1 0 .187l-1.758.879a.105.105 0 0 1-.152-.094V6.218a.105.105 0 0 1 .152-.094M.152 2.98l1.758.879a.105.105 0 0 1 0 .187l-1.758.88A.105.105 0 0 1 0 4.83V3.072a.105.105 0 0 1 .152-.093m2.097 1.048 1.758.88a.105.105 0 0 1 0 .187l-1.758.879a.105.105 0 0 1-.152-.094V4.12a.105.105 0 0 1 .152-.094m2.097 1.049 1.758.879a.105.105 0 0 1 0 .187l-1.758.88a.105.105 0 0 1-.152-.095V5.17a.105.105 0 0 1 .152-.094M.152 7.173l1.758.879a.105.105 0 0 1 0 .188l-1.455.727A.315.315 0 0 1 0 8.685V7.267a.105.105 0 0 1 .152-.094M11.941.775h1.156v6.089q0 .805-.253 1.317-.254.511-.632.807a2.25 2.25 0 0 1-.812.409 3 3 0 0 1-.794.114q-.903 0-1.523-.463-.62-.464-.788-1.402l1.131-.253q.097.482.397.758.302.277.783.277.432 0 .692-.168.258-.17.403-.44.144-.27.192-.62a5 5 0 0 0 .048-.71zm7.417 8.52h-1.083v-.879h-.024q-.205.458-.71.74a2.35 2.35 0 0 1-1.167.283 2.5 2.5 0 0 1-.795-.126 1.8 1.8 0 0 1-.655-.392 1.9 1.9 0 0 1-.452-.68 2.6 2.6 0 0 1-.168-.98V3.59h1.083v3.37q0 .397.108.68.109.282.289.457.18.174.415.253.235.078.487.078.338 0 .626-.108.289-.108.506-.343.216-.235.337-.596.12-.36.12-.854V3.59h1.083zm4.335-4.272a1.7 1.7 0 0 0-.476-.404 1.37 1.37 0 0 0-.692-.162q-.384 0-.667.162a.52.52 0 0 0-.283.476q0 .253.162.409.163.156.385.253.223.096.476.144l.433.084q.348.085.656.205.305.12.53.313.221.192.348.469.126.278.126.674 0 .481-.204.824a1.7 1.7 0 0 1-.53.56 2.2 2.2 0 0 1-.74.313 3.7 3.7 0 0 1-.836.096q-.71 0-1.245-.217-.535-.216-.957-.794l.818-.674q.265.265.59.47t.794.204q.204 0 .415-.042a1.3 1.3 0 0 0 .373-.132.8.8 0 0 0 .265-.23.52.52 0 0 0 .102-.318.55.55 0 0 0-.15-.397 1.1 1.1 0 0 0-.361-.247 2.6 2.6 0 0 0-.445-.144 15 15 0 0 0-.416-.09 7 7 0 0 1-.661-.193 2 2 0 0 1-.554-.289 1.3 1.3 0 0 1-.385-.457 1.5 1.5 0 0 1-.144-.686 1.56 1.56 0 0 1 .68-1.324q.306-.216.697-.324a2.94 2.94 0 0 1 1.896.108q.529.216.842.722zm5.367-.494h-1.553v2.587q0 .241.012.476t.09.42a.7.7 0 0 0 .241.302q.162.114.476.114.192 0 .397-.036.204-.036.373-.132v.986a1.4 1.4 0 0 1-.5.15 4 4 0 0 1-.475.043q-.626 0-.969-.175a1.2 1.2 0 0 1-.505-.45 1.5 1.5 0 0 1-.193-.62q-.03-.344-.03-.693V4.53h-1.251v-.938h1.251v-1.6h1.083v1.6h1.553zm.088-3.754h1.203l1.877 6.81h.024l2.01-6.81h1.324l2.01 6.81h.023l1.878-6.81H40.7l-2.479 8.52h-1.215l-2.07-6.956h-.024l-2.058 6.955H31.64zm11.34 3.514q.456-.422 1.058-.632.601-.21 1.204-.21.626 0 1.077.156t.74.42q.288.265.427.609.138.342.138.715V8.26q0 .3.012.553t.036.481h-.962a10 10 0 0 1-.036-.866h-.025q-.36.554-.854.782-.494.23-1.143.229-.397 0-.758-.108a1.9 1.9 0 0 1-.632-.325 1.55 1.55 0 0 1-.427-.536 1.66 1.66 0 0 1-.157-.74q0-.554.247-.926.248-.375.674-.608.427-.235.999-.337a7 7 0 0 1 1.221-.102h.794v-.241a1.19 1.19 0 0 0-.758-1.101 1.6 1.6 0 0 0-.601-.102 2.2 2.2 0 0 0-.975.21q-.192.09-.35.21-.155.121-.3.23zm3.056 2.262q-.386 0-.788.042a3 3 0 0 0-.734.162q-.332.12-.542.337a.76.76 0 0 0-.21.554q0 .493.33.71.331.216.897.216.446 0 .758-.15a1.43 1.43 0 0 0 .782-.927q.084-.294.084-.583V6.55zm6.054-2.022h-1.552v2.587q0 .241.012.476t.09.42a.7.7 0 0 0 .24.302q.163.114.476.114.192 0 .397-.036.204-.036.373-.132v.986a1.4 1.4 0 0 1-.5.15 4 4 0 0 1-.475.043q-.626 0-.968-.175a1.2 1.2 0 0 1-.506-.45 1.5 1.5 0 0 1-.192-.62q-.03-.344-.03-.693V4.53H45.71v-.938h1.252v-1.6h1.083v1.6h1.552zm4.974.578a2.3 2.3 0 0 0-.632-.475 1.8 1.8 0 0 0-.788-.163q-.446 0-.776.163-.331.162-.554.445-.222.282-.337.65-.114.366-.114.764 0 .396.132.752.133.354.373.62.24.264.578.415t.758.15q.458 0 .782-.162.325-.163.602-.476l.77.77q-.421.47-.98.674a3.4 3.4 0 0 1-1.186.205 3.3 3.3 0 0 1-1.21-.217 2.7 2.7 0 0 1-1.558-1.546 3.3 3.3 0 0 1-.216-1.21q0-.66.216-1.215a2.8 2.8 0 0 1 .608-.95q.39-.398.939-.62a3.2 3.2 0 0 1 1.221-.223q.626 0 1.197.223.572.222.993.68zm1.72-4.91h1.084V4.47h.024q.204-.457.71-.74a2.35 2.35 0 0 1 1.167-.283q.409 0 .788.127.379.126.662.39.283.266.451.68a2.6 2.6 0 0 1 .169.981v3.67h-1.083v-3.37q0-.397-.109-.68a1.24 1.24 0 0 0-.289-.457q-.18-.174-.415-.253a1.5 1.5 0 0 0-.487-.078q-.337 0-.626.108a1.3 1.3 0 0 0-.505.343 1.6 1.6 0 0 0-.337.596q-.12.36-.12.854v2.936h-1.083z"/></g></svg>