<svg xmlns="http://www.w3.org/2000/svg" xmlns:xlink="http://www.w3.org/1999/xlink" width="50" height="30"><defs><path id="a" d="M4.733.045c.482-.225.888.424 1.274 1.16l.154.297c.229.447.455.888.688 1.152.057.065-1.657.623-1.362.935s.711-.323 1.81-.536a7 7 0 0 1 .768-.038 8.065 8.065 0 0 1 8.065 8.065 8.04 8.04 0 0 1-2.526 5.862c-.88.688-1.666.592-1.624 1.019s1.587-.501 1.599-.415c.041.311.192.708.356 1.12l.124.311c.33.83.619 1.647.101 1.878-.992.442-2.704-2.066-3.737-2.052a8.3 8.3 0 0 1-2.358.342A8.065 8.065 0 0 1 0 11.08a8.06 8.06 0 0 1 3.832-6.866c.687-.772-.083-3.709.901-4.168zM2.648 10.426c-.535.418-.525 2.156.52 3.493s2.729 1.767 3.263 1.349-.282-1.525-1.327-2.862-1.922-2.398-2.456-1.98m5.801 1.805a.77.77 0 0 0-.768.768.77.77 0 0 0 .768.768.77.77 0 0 0 .768-.768.77.77 0 0 0-.768-.768m-3.84-4.609a.77.77 0 0 0-.768.768.77.77 0 0 0 .768.768.77.77 0 0 0 .768-.768.77.77 0 0 0-.768-.768"/><path id="d" d="M8.067 0c4.455 0 8.067 3.577 8.067 7.99s-3.612 7.99-8.067 7.99S0 12.402 0 7.99 3.612 0 8.067 0M5.399 6.256c-.304.785.092 1.665.884 1.966s1.681-.091 1.985-.875.512-1.369-.884-1.966-1.681.091-1.985.875m5.163-1.586c-.241.344-.155.821.193 1.064s.825.162 1.066-.183.155-.821-.193-1.064-.825-.162-1.066.183M3.863 2.339c-.241.344-.155.821.193 1.064s.825.162 1.066-.183.155-.821-.193-1.064-.825-.162-1.066.183"/><path id="h" d="M8.067 0a8.07 8.07 0 0 1 7.549 5.169c.2.463.358.695.517.538q.192-.19-.768-2.283 2.497.38 2.881 1.141c.384.761-.384 2.093-2.113 3.424 0 4.413-3.612 7.99-8.067 7.99S0 12.402 0 7.99 3.612 0 8.067 0m2.398 10.795c-1.257.197-2.238.595-2.132 1.259s1.356 1.944 2.613 1.747 2.046-1.797 1.94-2.461-1.163-.742-2.421-.545M6.914 8.37c-.424 0-.768.341-.768.761s.344.761.768.761.768-.341.768-.761-.344-.761-.768-.761m6.146-.761c-.424 0-.768.341-.768.761s.344.761.768.761.768-.341.768-.761-.344-.761-.768-.761"/><path id="g" d="M13.689 3.872c.732 1.202 1.152 2.611 1.152 4.118s-.421 2.915-1.152 4.117a7.9 7.9 0 0 1-1.152-4.117c0-1.499.417-2.901 1.141-4.099z"/><filter id="b" width="127.3%" height="124.0%" x="-13.6%" y="-12.0%"><feGaussianBlur in="SourceGraphic" stdDeviation="1"/></filter><filter id="e" width="124.8%" height="124.0%" x="-12.4%" y="-12.0%"><feGaussianBlur in="SourceGraphic" stdDeviation=".762"/></filter><ellipse id="j" cx="15.522" cy="7.99" rx="8.067" ry="7.99"/></defs><g fill="none" fill-rule="evenodd"><g transform="translate(3 4.2)"><mask id="c" fill="#fff"><use xlink:href="#a"/></mask><use xlink:href="#a" fill="#d47c20"/><ellipse cx="5" cy="5.3" fill="#ffb86c" filter="url(#b)" mask="url(#c)" rx="11" ry="12.5"/></g><g transform="translate(4.292 7.275)"><g transform="translate(12.536)"><mask id="f" fill="#fff"><use xlink:href="#d"/></mask><use xlink:href="#d" fill="#189444"/><ellipse cx="6.146" cy="4.946" fill="#7cd8a0" filter="url(#e)" mask="url(#f)" rx="9.219" ry="9.511"/></g><use xlink:href="#g" fill="#fff"/><g transform="translate(26.365)"><mask id="i" fill="#fff"><use xlink:href="#h"/></mask><use xlink:href="#h" fill="#4a88a5"/><ellipse cx="10.756" cy="4.946" fill="#acd4e8" filter="url(#e)" mask="url(#i)" rx="9.219" ry="9.511"/></g><use xlink:href="#g" x="13.828" fill="#fff"/><g fill="#fff" transform="translate(5.081)"><g fill-opacity=".4"><ellipse cx="2.772" cy="2.764" rx="1.343" ry="2.505" transform="rotate(105 2.772 2.764)"/><ellipse cx="29.661" cy="2.764" rx="1.342" ry="2.507" transform="rotate(87 29.66 2.764)"/></g><mask id="k"><use xlink:href="#j"/></mask><ellipse cx="17.416" cy="1.069" fill-opacity=".4" mask="url(#k)" rx="1.523" ry="2.841" transform="rotate(105 17.416 1.069)"/></g></g></g></svg>