<svg xmlns="http://www.w3.org/2000/svg" width="50px" height="30px" viewBox="0 0 50 30"><g fill="none" fill-rule="evenodd"><path fill="#FF8000" d="M17.037 20.642A7.86 7.86 0 0 1 11.42 23a7.86 7.86 0 0 1-5.616-2.358q2.801 1.215 5.616 1.215 2.691 0 5.368-1.11ZM11.42 7c4.375 0 7.921 3.582 7.921 8a8 8 0 0 1-1.167 4.181c-2.261 1.261-4.511 1.533-6.754 1.533-2.244 0-4.494-.304-6.757-1.538A8 8 0 0 1 3.5 15c0-4.418 3.546-8 7.921-8m0 7.619c-.398 0-.93.936-1.132 1.905-.115.552-.165 1.19 0 1.524.378.762.755-1.143 1.132-1.143s.754 1.905 1.132 1.143c.162-.329.116-.969 0-1.524-.202-.965-.735-1.905-1.132-1.905m-3.017-3.81c-1.25 0-2.264 1.786-2.264 3.048s1.014 1.524 2.264 1.524a2.275 2.275 0 0 0 2.263-2.286 2.275 2.275 0 0 0-2.263-2.285m6.035 0a2.275 2.275 0 0 0-2.264 2.286 2.275 2.275 0 0 0 2.264 2.286c1.25 0 2.263-.261 2.263-1.524s-1.013-3.047-2.263-3.047"/><path fill="#00E054" d="M25 7c4.375 0 7.921 3.582 7.921 8S29.375 23 25 23s-7.921-3.582-7.921-8S20.625 7 25 7m0 8.381c-1.042 0-1.509 1.238-1.509 1.905 0 .22.084.505.196.844l.144.431c.2.608.415 1.34.415 2.153 0 .762 0 1.524.754 1.524s.754-.762.754-1.524c0-1.524.755-2.771.755-3.428 0-.667-.467-1.905-1.509-1.905m0-3.048c-.625 0-1.132.683-1.132 1.524 0 .842.507 0 1.132 0s1.132.842 1.132 0c0-.841-.507-1.524-1.132-1.524m-2.013-2.738-.237.326-.367.528c-.21.301-.444.543-.67.752l-.46.41-.16.15c-.35.346-.529.677-.263 1.216.531 1.079 2.122.035 2.958-1.171.836-1.207.817-2.392.305-2.754-.369-.26-.66-.047-1.106.543m4.025 0c-.446-.59-.737-.804-1.105-.543-.512.362-.532 1.547.305 2.754.836 1.206 2.427 2.25 2.958 1.171.265-.539.086-.87-.264-1.216l-.16-.15-.459-.41a4.6 4.6 0 0 1-.67-.752l-.368-.528Z"/><path fill="#FFF" d="M18.21 10.877A8 8 0 0 1 19.343 15a8 8 0 0 1-1.131 4.123A8 8 0 0 1 17.079 15c0-1.5.409-2.905 1.12-4.105Z"/><path fill="#40BCF4" d="M38.579 7c4.375 0 7.921 3.582 7.921 8s-3.546 8-7.921 8-7.921-3.582-7.921-8 3.546-8 7.92-8m1.697 14.095a.57.57 0 0 0-.565.572c0 .315.253.571.565.571a.57.57 0 0 0 .566-.571.57.57 0 0 0-.566-.572m-3.772 0a.57.57 0 0 0-.565.572c0 .315.253.571.565.571a.57.57 0 0 0 .566-.571.57.57 0 0 0-.566-.572m6.035-1.524a.57.57 0 0 0-.565.572c0 .315.253.571.565.571a.57.57 0 0 0 .566-.571.57.57 0 0 0-.566-.572m-7.92 0a.57.57 0 0 0-.566.572c0 .315.253.571.565.571a.57.57 0 0 0 .566-.571.57.57 0 0 0-.566-.572m5.657-.38a.57.57 0 0 0-.565.57c0 .316.253.572.565.572a.57.57 0 0 0 .566-.571.57.57 0 0 0-.566-.572m-3.394 0a.57.57 0 0 0-.566.57c0 .316.253.572.566.572a.57.57 0 0 0 .565-.571.57.57 0 0 0-.565-.572m1.697-3.048-1.886 1.524h3.772zm-2.829-3.81c-.937 0-1.697.768-1.697 1.715 0 .946.76 1.714 1.697 1.714s1.697-.768 1.697-1.714c0-.947-.76-1.715-1.697-1.715m5.658 0c-.938 0-1.697.768-1.697 1.715 0 .946.76 1.714 1.697 1.714s1.697-.768 1.697-1.714c0-.947-.76-1.715-1.697-1.715m-.377-2.285a.57.57 0 0 0-.566.571c0 .316.253.571.566.571a.57.57 0 0 0 .565-.571.57.57 0 0 0-.565-.571m-4.904 0a.57.57 0 0 0-.566.571c0 .316.254.571.566.571a.57.57 0 0 0 .566-.571.57.57 0 0 0-.566-.571m2.452 0a.57.57 0 0 0-.566.571c0 .316.253.571.566.571a.57.57 0 0 0 .566-.571.57.57 0 0 0-.566-.571m2.452-1.905a.57.57 0 0 0-.566.571c0 .316.253.572.566.572a.57.57 0 0 0 .565-.572.57.57 0 0 0-.565-.571m-4.904 0a.57.57 0 0 0-.566.571.57.57 0 0 0 .566.572.57.57 0 0 0 .566-.572.57.57 0 0 0-.566-.571"/><path fill="#FFF" d="M31.79 10.877A8 8 0 0 1 32.92 15a8 8 0 0 1-1.131 4.123A8 8 0 0 1 30.658 15c0-1.5.409-2.905 1.12-4.105Z"/></g></svg>