<svg xmlns="http://www.w3.org/2000/svg" xmlns:xlink="http://www.w3.org/1999/xlink" width="50px" height="30px" viewBox="0 0 50 30"><defs><radialGradient id="a" cx="32.7845296%" cy="25.8366137%" r="76.6927268%" fx="32.7845296%" fy="25.8366137%" gradientTransform="scale(.9862 1)rotate(41.504 .33 .264)"><stop offset="0%" stop-color="#8CFF68"/><stop offset="60.1884984%" stop-color="#00E054"/><stop offset="93.0046257%" stop-color="#0C8C54"/><stop offset="100%" stop-color="#00E054"/></radialGradient><radialGradient id="c" cx="32.7845296%" cy="25.8366137%" r="76.6826853%" fx="32.7845296%" fy="25.8366137%" gradientTransform="matrix(.7337 .66822 -.659 .74397 .258 -.153)"><stop offset="0%" stop-color="#80E8FF"/><stop offset="60.2116229%" stop-color="#40BCF4"/><stop offset="93.0689642%" stop-color="#5468C8"/><stop offset="100%" stop-color="#40BCF4"/></radialGradient><radialGradient id="f" cx="32.7845296%" cy="25.8366137%" r="76.6858935%" fx="32.7845296%" fy="25.8366137%" gradientTransform="matrix(.72547 .67739 -.66804 .73562 .262 -.154)"><stop offset="0%" stop-color="#FFC83C"/><stop offset="63.9149913%" stop-color="#FF8000"/><stop offset="93.1841765%" stop-color="#A44000"/><stop offset="100%" stop-color="#FF8000"/></radialGradient><path id="b" d="M0 0h14.771v15.886H0z"/><path id="e" d="M0 0h14.771v15.886H0z"/></defs><g fill="none" fill-rule="evenodd" transform="translate(3.5 4)"><g transform="translate(0 3.114)"><ellipse cx="21.5" cy="7.86193608" fill="url(#a)" rx="7.97191011" ry="7.86193608"/><g transform="translate(28.229)"><mask id="d" fill="#fff"><use xlink:href="#b"/></mask><ellipse cx="6.79908225" cy="7.86193608" fill="url(#c)" mask="url(#d)" rx="7.97191011" ry="7.86193608"/></g><mask id="g" fill="#fff"><use xlink:href="#e"/></mask><ellipse cx="7.97191011" cy="7.86193608" fill="url(#f)" mask="url(#g)" rx="7.97191011" ry="7.86193608"/><path fill="#FFF" d="M28.264 3.7a7.75 7.75 0 0 1 1.208 4.162 7.75 7.75 0 0 1-1.208 4.163 7.75 7.75 0 0 1-1.208-4.163 7.75 7.75 0 0 1 1.208-4.163m-13.528 8.326a7.75 7.75 0 0 1-1.208-4.163 7.75 7.75 0 0 1 1.208-4.163 7.75 7.75 0 0 1 1.208 4.163 7.75 7.75 0 0 1-1.208 4.163"/></g><path fill="#FFF" d="M7.921 0c1.042 0 1.886.842 1.886 1.881s-.844 1.882-1.886 1.882A1.884 1.884 0 0 1 6.035 1.88C6.035.842 6.88 0 7.921 0m0 .94a.942.942 0 1 0 .943.941.94.94 0 0 0-.943-.94M21.5 0c1.042 0 1.886.842 1.886 1.881s-.844 1.882-1.886 1.882a1.884 1.884 0 0 1-1.886-1.882C19.614.842 20.458 0 21.5 0m0 .94a.942.942 0 1 0 .943.941.94.94 0 0 0-.943-.94M35.079 0c1.042 0 1.886.842 1.886 1.881s-.844 1.882-1.886 1.882a1.884 1.884 0 0 1-1.886-1.882C33.193.842 34.037 0 35.079 0m0 .94a.942.942 0 1 0 .943.941.94.94 0 0 0-.943-.94"/><ellipse cx="5.20807978" cy="6.68296038" fill="#FFF" fill-opacity="0.6" rx="1.32908252" ry="2.45783525" transform="rotate(40 5.208 6.683)"/><ellipse cx="18.7601039" cy="6.68296038" fill="#FFF" fill-opacity="0.6" rx="1.32908252" ry="2.45783525" transform="rotate(40 18.76 6.683)"/><ellipse cx="32.3121281" cy="6.68296038" fill="#FFF" fill-opacity="0.6" rx="1.32908252" ry="2.45783525" transform="rotate(40 32.312 6.683)"/></g></svg>