<svg xmlns="http://www.w3.org/2000/svg" xmlns:xlink="http://www.w3.org/1999/xlink" width="50" height="30"><defs><path id="a" d="M4.634.3c1.845 0 2.08.48 3.702.12-.975 1.534.135 5.419-2.505 5.419-1.137 0-.617-.24-1.388-.24-.703 0-.042.095-.868.095C-.147 5.694 1.025 1.733 0 0c1.222.533 2.599.3 4.634.3"/><path id="c" d="M4.344 1.923c-.144.825-1.693.522-1.461 1.884-1.208 0-3.208-.727-2.839-1.818S1.522-.697 3.359.332c.479.268 1.107.897.986 1.591z"/></defs><g fill="none" fill-rule="evenodd"><path fill="#00e154" d="M21.974 21.968q-2.355-.623-2.943-2.688c-2.122.321-2.082-7.971.39-10.516a5.5 5.5 0 0 1 1.041-.842c.245-.155.581-.217.755-.365C22.097 6.221 23.359 5.6 25 5.6s2.903.621 3.783 1.958c.173.148.406.212.717.365s.671.416 1.094.859c2.456 2.564 2.492 10.819.374 10.499q-.588 2.066-2.943 2.688c-.827 1.443-1.847 2.382-3.026 2.382s-2.199-.939-3.026-2.382z"/><path fill="#ff8100" d="M11.787 7.034c2.786 0 5.231 1.497 6.607 3.748.748 1.223 1.18 2.669 1.18 4.218s-.432 2.995-1.18 4.218c-1.376 2.251-3.82 3.748-6.607 3.748C7.486 22.966 4 19.4 4 15s3.486-7.966 7.787-7.966"/><path fill="#40bdf5" d="M38.213 7.034C42.514 7.034 46 10.6 46 15s-3.486 7.966-7.787 7.966c-2.786 0-5.231-1.497-6.607-3.748-.748-1.223-1.18-2.669-1.18-4.218s.432-2.995 1.18-4.218c1.376-2.251 3.82-3.748 6.607-3.748"/><g transform="translate(20.69 14.5)"><mask id="b" fill="#fff"><use xlink:href="#a"/></mask><use xlink:href="#a" fill="#202830"/><ellipse cx="5.311" cy=".5" fill="#ff8100" mask="url(#b)" rx="4" ry="1"/><g fill="#fff"><g mask="url(#b)"><path d="m5.011 2.534-.33.055c-.909.153-1.714.033-2.151-.575l-.079-.206C2.66 1.198 3.075 0 3.862 0 4.967 0 5.038 1.655 5.02 2.24zM1.421.2c-.028.384-.23.799-.588.799C.499.999.334.49.352.067c.339.118.69.148 1.068.133"/><path d="M5.381.3c.398 0 .663.512.918.897.13-.367.29-.755.477-.755.282 0 .496.299.7.609a1.4 1.4 0 0 1 .239-.6l.286.001q.19.327.195.783-.244.418-.648.15c-.02.424-.097.784-.771.714-.502.308-1.358.492-1.966.275-.006-.896.2-2.074.57-2.074M2.907 1.706l-.049.256-.293.044c-.655.098-1.215-.084-1.529-.599l-.061-.21c.119-.277.335-.75.677-1.011L2.51.085c.233.133.345.403.395.661a2.8 2.8 0 0 1 .002.961"/></g><path d="M7.79 3.786c.083.118.079.248-.036.32q.121.416-.095.737.017.541-.592.699a.93.93 0 0 1-.867.584 1.1 1.1 0 0 0 .032-.515q-.335.533-1.145.629c.342-.549.197-1.074.39-1.297q.758-.101.906.236.014-.35.251-.515a.3.3 0 0 1 .056-.344c-.197-.438.137-.562.485-.616.304-.046.485-.09.616.08m-7.105.071c-.175.153.017.293.294.41q-.012.533.358.57-.014.226.258.382.114.245.338.219.451.555.817.35l-.098-.934a.33.33 0 0 0-.326-.236q-.007-.312-.239-.393-.1-.17-.398-.16c0-.264-.557-.602-1.006-.209"/></g><g fill="#ff8100"><path d="M2.311 4.375C3.128 5.771 1.022 8.67 4.304 8.67c1.663 0 2.674-2.784 1.955-4.295z"/><path d="M6.311 4.5c-.219-.721-.828-1.01-1.869-.774.237.223-.264-.226-.891-.226-.753 0-1.325.346-1.23.909"/></g><path fill="#202830" d="m4.258 2.671-.865.44c.852 0 1.406.965 1.694 2.095q.396-1.126-.199-1.912z"/></g><g transform="translate(20.166 8.528)"><mask id="d" fill="#fff"><use xlink:href="#c"/></mask><use xlink:href="#c" fill="#202830"/><path fill="#ff8100" fill-rule="nonzero" d="M2.366.659c1.017 0 1.842.851 1.842 1.9s-.825 1.9-1.842 1.9-1.842-.851-1.842-1.9.825-1.9 1.842-1.9" mask="url(#d)"/><circle cx="2.459" cy="2.597" r="1" fill="#000" mask="url(#d)"/><g transform="matrix(-1 0 0 1 9.594 0)"><mask id="e" fill="#fff"><use xlink:href="#b" href="#c"/></mask><use xlink:href="#b" fill="#202830" href="#c"/><path fill="#ff8100" fill-rule="nonzero" d="M2.366.659c1.017 0 1.842.851 1.842 1.9s-.825 1.9-1.842 1.9-1.842-.851-1.842-1.9.825-1.9 1.842-1.9" mask="url(#e)"/><circle cx="2.459" cy="2.597" r="1" fill="#000" mask="url(#e)"/></g><path fill="#202830" d="M4.834 5.409c-.586 0-.77-.932-1.31-.911 0-.414.14-.821.459-.821.364 0 .523.569.851.569s.487-.569.851-.569c.319 0 .459.406.459.821-.54-.021-.724.911-1.31.911"/></g><path fill="#fff" d="m18.341 10.697.053.085A8.06 8.06 0 0 1 19.574 15a8.07 8.07 0 0 1-1.134 4.143c-1.109-1.052-1.172-5.488-.098-8.446m13.219 8.446A8.07 8.07 0 0 1 30.427 15a8.06 8.06 0 0 1 1.18-4.218l.052-.085c1.074 2.958 1.011 7.394-.098 8.446"/></g></svg>