<svg xmlns="http://www.w3.org/2000/svg" width="50" height="30" viewBox="0 0 50 30"><g fill="none" fill-rule="evenodd" transform="translate(4 7)"><circle cx="8" cy="8" r="8" fill="#FF5000"/><circle cx="8" cy="8" r="5" fill="#000"/><path fill="#FF5000" d="m9.04 1.487 2.35.855-4.43 12.17-2.35-.855z"/><path fill="#FFF" d="m9.135 9.268 3.257-.177q-1.074 1.326-1.691 1.398-.861.1-1.566-1.221M6.316 8.242 3.934 6.013q-.03 1.707.397 2.158.596.63 1.985.07"/><path fill="#FFF" d="M7.918.383c.377 0 1.886.001 1.887.573 0 .19-.755.19-1.132.19-3.958-.003-7.165 3.235-7.162 7.232 0 .381 0 1.143-.188 1.143-.377 0-.566-.572-.567-1.905C.753 3.618 3.96.38 7.918.383" style="mix-blend-mode:overlay" transform="rotate(4 5.28 4.952)"/><circle cx="21" cy="8" r="8" fill="#00E054"/><path fill="#FFF" d="M14.5 12.665A7.96 7.96 0 0 0 16 8c0-1.74-.556-3.352-1.5-4.665A7.96 7.96 0 0 0 13 8c0 1.74.556 3.352 1.5 4.665"/><circle cx="34" cy="8" r="8" fill="#40BCF4"/><path fill="#FFF" d="M27.5 12.665A7.96 7.96 0 0 0 29 8c0-1.74-.556-3.352-1.5-4.665A7.96 7.96 0 0 0 26 8c0 1.74.556 3.352 1.5 4.665"/></g></svg>