<svg xmlns="http://www.w3.org/2000/svg" width="50px" height="30px" viewBox="0 0 50 30"><g fill="none" fill-rule="evenodd" transform="translate(2 7)"><path fill="#FF8000" fill-rule="nonzero" d="M14.14.188c-1.154 0-2.325.528-3.473 1.397l-.287.225q-.282.228-.538.466l-.24.227.01.01a11 11 0 0 0-1.076-.929C7.388.716 6.216.188 5.063.188 2.052.188 0 1.808 0 4.967c0 1.118.468 2.22 1.24 3.27.263.358.544.685.825.976l.159.16q.109.107.185.175l6.81 6.302c.216.2.55.2.767 0l6.778-6.274.09-.081q.113-.104.286-.282c.281-.29.562-.618.826-.977.77-1.05 1.239-2.151 1.239-3.27 0-3.158-2.054-4.778-5.065-4.778"/><ellipse cx="23.5355649" cy="7.90588235" fill="#00E054" rx="7.90794979" ry="7.90588235"/><path fill="#FFF" d="M18.321 1.962c.567.761.884 1.764.884 3.005 0 1.118-.468 2.22-1.24 3.27a9.4 9.4 0 0 1-1.11 1.258l-.09.08-.771.715a7.9 7.9 0 0 1-.366-2.384c0-2.307.988-4.383 2.564-5.828Z"/><ellipse cx="37.0920502" cy="7.90588235" fill="#40BCF4" rx="7.90794979" ry="7.90588235"/><path fill="#FFF" d="M30.314 3.831a7.87 7.87 0 0 1 1.13 4.075 7.87 7.87 0 0 1-1.13 4.074 7.87 7.87 0 0 1-1.13-4.074c0-1.483.408-2.87 1.119-4.056Z"/></g></svg>