<svg xmlns="http://www.w3.org/2000/svg" width="120px" height="60px" viewBox="0 0 120 60"><g fill="none" fill-rule="evenodd"><path stroke="#181B20" stroke-linecap="round" stroke-linejoin="round" stroke-width="2" d="m100 10 10 10m0-10-10 10M15.5 8.59v11.82m6-5.91h-12m42.278-4.036-9.192 9.193-4.243-4.243"/><path stroke="#FFF" stroke-linecap="round" stroke-linejoin="round" stroke-width="2" d="m100 40 10 10m0-10-10 10"/><circle cx="75" cy="15" r="9.5" stroke="#000" stroke-width="1.8"/><path fill="#000" fill-rule="nonzero" d="M73.203 10.25a1.3 1.3 0 0 0-.917.366l-.786.757-.786-.757a1.3 1.3 0 0 0-.916-.366 1.3 1.3 0 0 0-.917.366 1.213 1.213 0 0 0 0 1.766l2.34 2.256a.4.4 0 0 0 .28.112.4.4 0 0 0 .28-.112l2.339-2.255a1.217 1.217 0 0 0 0-1.767 1.3 1.3 0 0 0-.917-.366m7 0a1.3 1.3 0 0 0-.917.366l-.786.757-.786-.757a1.3 1.3 0 0 0-.916-.366 1.3 1.3 0 0 0-.917.366 1.213 1.213 0 0 0 0 1.766l2.34 2.256a.4.4 0 0 0 .28.112.4.4 0 0 0 .28-.112l2.339-2.255a1.217 1.217 0 0 0 0-1.767 1.3 1.3 0 0 0-.917-.366"/><path stroke="#000" stroke-linecap="round" stroke-linejoin="round" stroke-width="1.8" d="M70.977 18.22A5 5 0 0 0 75 20.25a5.04 5.04 0 0 0 4-2"/><path fill="#FFF" d="M75 35.5a9.5 9.5 0 1 1 0 19 9.5 9.5 0 0 1 0-19m4.176 12.063c-.3-.161-.663-.028-.812.298-.633 1.39-1.937 2.27-3.364 2.27s-2.73-.88-3.364-2.27c-.149-.326-.512-.459-.812-.298s-.422.556-.273.882c.837 1.838 2.562 3.001 4.449 3.001s3.612-1.163 4.45-3.001c.148-.326.025-.72-.274-.882M73.1 40.25c-.335 0-.656.136-.887.375l-.76.776-.76-.776a1.23 1.23 0 0 0-1.772 0 1.295 1.295 0 0 0 0 1.81l2.263 2.31a.375.375 0 0 0 .541 0l2.262-2.31c.49-.506.49-1.304 0-1.81a1.23 1.23 0 0 0-.887-.375m7.09 0c-.335 0-.655.136-.886.375l-.76.776-.76-.776a1.23 1.23 0 0 0-1.773 0 1.3 1.3 0 0 0 0 1.81l2.263 2.31a.375.375 0 0 0 .541 0l2.261-2.31a1.295 1.295 0 0 0 0-1.81 1.23 1.23 0 0 0-.886-.375"/><path stroke="#FFF" stroke-linecap="round" stroke-linejoin="round" stroke-width="2" d="M15.5 38.59v11.82m6-5.91h-12m42.278-4.036-9.192 9.193-4.243-4.243"/></g></svg>