<svg xmlns="http://www.w3.org/2000/svg" width="512" height="512"><path fill="#004699" d="M512 256c0 141.384-114.616 256-256 256S0 397.384 0 256C0 256.061 256 .028 256 0c141.384 0 256 114.616 256 256"/><path fill="#f0f0f0" d="M256.001 133.565V0h-.044C114.592.024 0 114.629 0 256h133.565v-75.211L208.777 256h46.539l.685-.685v-46.537l-75.213-75.213z"/><path fill="#d80027" d="M129.523 33.377a257.2 257.2 0 0 0-96.124 96.124v126.485h66.783V100.16h155.826V33.377zm126.485 191.128-90.953-90.953h-31.481v.002l122.434 122.432zm194.888-4.328h24.479l-19.804 14.388 7.561 23.269-19.795-14.38-19.796 14.38 7.561-23.269-19.805-14.388h24.48l7.56-23.263 7.558 23.263zm-61.155 130.938h33.42l-27.039 19.642 10.326 31.773-27.029-19.637-27.029 19.637 10.326-31.773-27.039-19.642h33.42l10.322-31.767zm1.033-204.598h28.951l-23.424 17.013 8.944 27.523-23.412-17.011-23.411 17.011 8.942-27.523-23.421-17.013h28.949l8.94-27.516zm-60.123 81.422h33.421l-27.039 19.642 10.326 31.773-27.029-19.637-27.029 19.637 10.326-31.773-27.039-19.642h33.42l10.322-31.767z"/><path fill="#fff" d="m379.419 309.64 2.853 8.781 9.648 29.694h40.475l-7.471 5.427-25.275 18.361 9.652 29.7 2.854 8.781-7.47-5.427-25.266-18.356-25.266 18.356-7.47 5.427 2.854-8.781 9.651-29.7-25.274-18.361-7.471-5.427h40.474l9.649-29.694zm0 19.417-7.469 22.985-.674 2.073H344.91l19.569 14.215 1.764 1.281-.674 2.073-7.472 22.99 19.559-14.208 1.763-1.281 1.763 1.281 19.558 14.208-7.471-22.99-.674-2.073 1.764-1.281 19.568-14.215h-26.366l-.674-2.073zM320.33 186.463l2.853 8.781 9.648 29.694h40.475l-7.471 5.427-25.275 18.361 9.652 29.7 2.854 8.781-7.47-5.427-25.267-18.356-25.265 18.356-7.47 5.427 2.854-8.781 9.651-29.7-25.274-18.361-7.471-5.427h40.474l9.649-29.694zm-.001 19.418-7.468 22.985-.674 2.073H285.82l19.569 14.215 1.764 1.281-.674 2.073-7.472 22.99 19.559-14.208 1.763-1.281 1.763 1.281 19.558 14.208-7.471-22.99-.674-2.073 1.764-1.281 19.568-14.215H328.47l-.674-2.073-7.469-22.985zm123.01-18.674 2.853 8.781 6.883 21.189h31.533l-7.47 5.427-18.041 13.107 6.888 21.196 2.853 8.781-7.47-5.427-18.033-13.099-18.031 13.099-7.47 5.427 2.853-8.781 6.887-21.196-18.041-13.107-7.47-5.427h31.532l6.888-21.19 2.854-8.78zm-.002 19.415-4.706 14.482-.674 2.073H420.53l12.336 8.961 1.764 1.281-.674 2.073-4.709 14.487 12.327-8.953 1.763-1.281 1.763 1.281 12.325 8.953-4.708-14.487-.674-2.073 1.763-1.281 12.333-8.961h-17.425l-.673-2.073-4.706-14.482zm-61.504-97.329 2.853 8.781 8.267 25.443h36.007l-7.472 5.427-21.66 15.732 8.27 25.45 2.854 8.782-7.47-5.428-21.649-15.73-21.647 15.73-7.47 5.428 2.853-8.782 8.269-25.45-21.658-15.732-7.471-5.427h36.004l8.267-25.443zm0 19.417-6.087 18.734-.674 2.073h-21.895l15.95 11.586 1.764 1.281-.674 2.073-6.09 18.74 15.942-11.583 1.763-1.281 1.763 1.281 15.941 11.583-6.089-18.74-.674-2.073 1.764-1.281 15.951-11.586h-21.895l-.674-2.073-6.088-18.734z"/></svg>