<svg xmlns="http://www.w3.org/2000/svg" width="90" height="24" viewBox="0 0 90 24"><g fill="none" fill-rule="evenodd"><path fill="#00E054" fill-rule="nonzero" d="M12 24C2.373 24 0 21.627 0 12S2.373 0 12 0s12 2.373 12 12-2.373 12-12 12m0-1.5c8.799 0 10.5-1.701 10.5-10.5S20.799 1.5 12 1.5 1.5 3.201 1.5 12 3.201 22.5 12 22.5"/><path fill="#FF8000" fill-rule="nonzero" d="M42 24c-9.627 0-12-2.373-12-12S32.373 0 42 0s12 2.373 12 12-2.373 12-12 12m0-1.5c8.799 0 10.5-1.701 10.5-10.5S50.799 1.5 42 1.5 31.5 3.201 31.5 12 33.201 22.5 42 22.5"/><path fill="#00C030" d="M72 24c9.627 0 12-2.373 12-12S81.627 0 72 0 60 2.373 60 12s2.373 12 12 12"/><path stroke="#FFF" stroke-width="2" d="M72 5.5v13M65.5 12h13"/><path fill="#00E054" fill-rule="nonzero" d="M17.478 7.188a.67.67 0 0 0-.932 0L9.77 13.683l-2.414-2.47c-.185-.181-.5-.065-.746.177l-.335.327c-.25.244-.37.55-.184.731l3.384 3.461c.189.185.506.069.752-.178l7.58-7.308a.636.636 0 0 0 .004-.91z"/><path fill="#FF8000" fill-rule="nonzero" d="m38.354 16.884 8.53-8.53a.5.5 0 0 0 0-.708l-.53-.53a.5.5 0 0 0-.708 0l-8.53 8.53a.5.5 0 0 0 0 .708l.53.53a.5.5 0 0 0 .708 0"/><path fill="#FF8000" fill-rule="nonzero" d="m46.884 15.646-8.53-8.53a.5.5 0 0 0-.708 0l-.53.53a.5.5 0 0 0 0 .708l8.53 8.53a.5.5 0 0 0 .708 0l.53-.53a.5.5 0 0 0 0-.708"/></g></svg>