<svg xmlns="http://www.w3.org/2000/svg" width="23" height="21" viewBox="0 0 23 21"><g fill="none" fill-rule="evenodd" stroke="#789" stroke-linecap="round" stroke-linejoin="round"><path d="M16.508 18.201c2.746-.506 5.401-1.249 5.401-1.868 0-1.052-3.87-8.444-3.87-9.8.01-.217.024-.39.024-.562C18.063 2.327 15.248.5 11.457.5s-6.61 1.855-6.61 5.471q.002.21.024.414a.5.5 0 0 0-.025.148C4.846 7.889 1 15.28 1 16.333c0 .614 2.62 1.353 5.346 1.857-.218.56-.973 1.895-.352 1.983 2.078.295 9.194.266 11.018-.061.506-.09-.504-1.91-.504-1.91"/><path d="M11.5 7c-.017-.005-1.754-.558-2.5-.5-.512.041-2.016-.036-3.117 1.701C4.744 10 4 13 3.5 15.5m9-.85h-2v-1.164c0-.986.552-.986 1-.986s1 0 1 .986z"/><path d="M6.566 10.774c-.165-.65 0-1.334.465-1.92.426-.543 1.535-.354 1.535-.354.864 0 1.97.192 2.016.225l.047.033v1.978l-.044.033c-.022.016-.74.731-1.931.731-2.047 0-2.03-.627-2.075-.69zm9.777 0c.166-.65.122-1.188-.343-1.774-.426-.542-1.69-.5-1.69-.5-.864 0-1.937.192-1.983.225l-.047.033v1.978l.044.033c.022.016.74.731 1.931.731 2.047 0 2.03-.627 2.075-.69zM8 17.5l2.5-3h2l2.5 3z"/><path stroke-width=".5" d="M10.75 14.5v3zm1.5 0v3z"/><path d="M11.5 7c.017-.005 1.754-.558 2.5-.5.512.041 1.829-.036 2.932 1.701C18.068 10 19 13 19.5 15.5"/></g></svg>